<svg id="Layer_1" data-name="Layer 1" xmlns="http://www.w3.org/2000/svg" viewBox="0 0 691 314"><defs><style>.cls-1,.cls-10{fill:none;stroke-linecap:round;}.cls-1{stroke:#0071bc;stroke-width:6px;}.cls-1,.cls-10,.cls-6,.cls-7,.cls-8{stroke-miterlimit:10;}.cls-2,.cls-6{fill:#369;}.cls-3{font-size:18px;fill:#f2f2f2;font-family:Arial-BoldMT, Arial;font-weight:700;}.cls-4{letter-spacing:-0.04em;}.cls-5{fill:#4d4d4d;}.cls-10,.cls-6,.cls-7{stroke:#000;}.cls-7{fill:#1f3d5c;}.cls-8{stroke:#999;stroke-width:2px;}.cls-9{fill:red;}.cls-10{stroke-width:12px;}</style></defs><title>spend-robot-signup</title><polyline class="cls-1" points="382.5 159.5 313 130 382.5 97.5"/><polygon class="cls-2" points="381 94 381 163 678 163 653.48 131 678 94 381 94"/><text class="cls-3" transform="translate(392.5 125.5)">Easy<tspan class="cls-4" x="42.04" y="0"> </tspan><tspan x="46.37" y="0">Application begins here.</tspan><tspan x="0" y="21.6">This will not take long...</tspan></text><ellipse class="cls-5" cx="110.32" cy="289.09" rx="101.5" ry="12.26"/><circle class="cls-6" cx="128.84" cy="187.98" r="101.5" transform="translate(-95.84 226.15) rotate(-65.22)"/><circle class="cls-7" cx="128.84" cy="187.98" r="77.5" transform="translate(-95.84 226.15) rotate(-65.22)"/><circle class="cls-6" cx="157.62" cy="205.64" r="43" transform="translate(-95.15 262.53) rotate(-65.22)"/><path class="cls-6" d="M157.41,21h0a60.26,60.26,0,0,1,60.26,60.26v2.58a8.51,8.51,0,0,1-8.51,8.51H105.66a8.51,8.51,0,0,1-8.51-8.51V81.29A60.26,60.26,0,0,1,157.41,21Z" transform="translate(17.9 -35.65) rotate(13.69)"/><circle class="cls-8" cx="141.7" cy="58.74" r="12.17" transform="translate(28.97 162.76) rotate(-65.22)"/><circle class="cls-8" cx="169.6" cy="71.63" r="8.79" transform="translate(33.47 195.58) rotate(-65.22)"/><circle class="cls-9" cx="148.02" cy="58.47" r="3.52" transform="translate(32.89 168.34) rotate(-65.22)"/><polyline class="cls-10" points="313 130 263 188 158 206"/><circle class="cls-6" cx="261.16" cy="186.18" r="11.99" transform="translate(-50.94 260.09) rotate(-48.81)"/></svg>