<svg id="Layer_1" data-name="Layer 1" xmlns="http://www.w3.org/2000/svg" viewBox="0 0 471.5 557.77"><defs><style>.cls-1,.cls-2,.cls-3,.cls-4{fill:none;stroke:#fffa00;stroke-width:20px;}.cls-1,.cls-2,.cls-3,.cls-4,.cls-5,.cls-8{stroke-miterlimit:10;}.cls-2{stroke-dasharray:12.12 12.12;}.cls-3{stroke-dasharray:11.99 11.99;}.cls-4{stroke-dasharray:11.27 11.27;}.cls-5{fill:#dcbd9a;}.cls-5,.cls-8{stroke:#000;}.cls-6{fill:#c4a178;}.cls-7{fill:#433627;}.cls-8{fill:#b0967c;}.cls-9{fill:#7d654a;}</style></defs><title>business-icon</title><line class="cls-1" x1="96.5" y1="428.96" x2="101.63" y2="425.85"/><line class="cls-2" x1="112" y1="419.56" x2="231.19" y2="347.22"/><polyline class="cls-1" points="236.38 344.07 241.5 340.96 246.61 344.1"/><line class="cls-3" x1="256.83" y1="350.39" x2="374.29" y2="422.67"/><line class="cls-1" x1="379.39" y1="425.81" x2="384.5" y2="428.96"/><line class="cls-1" x1="241.5" y1="340.96" x2="241.5" y2="334.96"/><line class="cls-4" x1="241.5" y1="323.69" x2="241.5" y2="216.59"/><line class="cls-1" x1="241.5" y1="210.96" x2="241.5" y2="204.96"/><path class="cls-5" d="M377.86,514.86S367,436.46,370.39,410.48c2.17-16.83,13.8-40.85,52.34-49.74s58.09-7.58,76.5-2.33a79.24,79.24,0,0,1,45.44,33.87c2.69,4.33,10.29,48.57,4.6,77.85-5.74,29.55-5.46,40.88-6.33,52.37-.28,3.72-35.63,83.26-51.76,88.67-14.31,4.8-51,5.81-59.61-2.79s-47.37-62.93-47.37-62.93Z" transform="translate(-81.5 -57.54)"/><path class="cls-6" d="M477.68,398.43s17,34.43,26.79,34.37c15.5-.08,33.87,27.3,33.87,27.3s-6.74,56.79-3,67.74l-1.1,14.58,8.3-19.53c.38-23.95,3.57-39.37,7.65-62.81L528.74,395.4l-53.08-23.25Z" transform="translate(-81.5 -57.54)"/><path class="cls-7" d="M494.8,397.35s-16.1,19.21-31.63,22.75l-15.53,3.54s17.25-12.64,17.83-17.19c0,0-27,2-42,17.19s-20.13,2-28.76,14.66-17.48,41-20.86,38.74c-9.19-11.11-15.49-70.1,7.1-98.39,22.43-28.09,132.56-62.2,165.84,13.14,5.56,12.58,8.44,42.29,4.09,69.21-9.71-18-19.36-32.87-35.08-39.59C504.66,418.21,498,409.74,494.8,397.35Z" transform="translate(-81.5 -57.54)"/><path class="cls-8" d="M93.86,514.86S83,436.46,86.39,410.48c2.17-16.83,13.8-40.85,52.34-49.74s58.09-7.58,76.5-2.33a79.24,79.24,0,0,1,45.44,33.87c2.69,4.33,10.29,48.57,4.6,77.85-5.74,29.55-5.46,40.88-6.33,52.37-.28,3.72-35.63,83.26-51.76,88.67-14.31,4.8-51,5.81-59.61-2.79s-47.37-62.93-47.37-62.93Z" transform="translate(-81.5 -57.54)"/><path class="cls-9" d="M193.68,398.43s17,34.43,26.79,34.37c15.5-.08,33.87,27.3,33.87,27.3s-6.74,56.79-3,67.74l-1.1,14.58,8.3-19.53c.38-23.95,3.57-39.37,7.65-62.81L244.74,395.4l-53.08-23.25Z" transform="translate(-81.5 -57.54)"/><path class="cls-7" d="M210.8,397.35s-16.1,19.21-31.63,22.75l-15.53,3.54s17.25-12.64,17.83-17.19c0,0-27,2-42,17.19s-20.13,2-28.76,14.66-17.48,41-20.86,38.74c-9.19-11.11-15.49-70.1,7.1-98.39,22.43-28.09,132.56-62.2,165.84,13.14,5.56,12.58,8.44,42.29,4.09,69.21-9.71-18-19.36-32.87-35.08-39.59C220.66,418.21,214,409.74,210.8,397.35Z" transform="translate(-81.5 -57.54)"/><polygon class="cls-7" points="175.08 254.16 219.56 249.53 198.99 139.09 151.17 141.6 148.35 234.94 175.08 254.16"/><path class="cls-5" d="M247.67,204.87s3.75,30.43,8,38.39,30.94,53,49.69,67.5,45.47-4.69,45.47-4.69,30.94-25.94,34.22-35,23.91-52.36,23.44-93.92C408,135.32,375.18,97,375.18,97S311,56.2,272.51,97,247.67,204.87,247.67,204.87Z" transform="translate(-81.5 -57.54)"/><path class="cls-6" d="M312.36,135.43c3.83-1.88,25.88,28.84,47.35,44.07,1.35,22.15,11.09,52.37,22,83.76l-4.14,13.38L393,281.36l15.48-66.7-38-107.83H314.24S308.53,137.3,312.36,135.43Z" transform="translate(-81.5 -57.54)"/><path class="cls-7" d="M330.45,126.28C324.25,139.2,315,149.49,301.39,156c-16.2,8.24-33.81,26.37-54.85,48.92l8.91,106.83-41.21-3.13c1.41-19.69-7.45-29.26-6-43.64,6-58.22,12.32-112.49,21.4-138.65,0,0,19.27-51.62,41.26-59.77,21.76-8.06,56-15.47,99.38.33,49,28.74,46.89,89.33,46.89,89.33C433,199,418.33,302.94,412.5,303.73c-3.49.47-55.13-4.32-55.13-4.32s25.91-24,29.43-37.39c0,0-9.76-81-12.27-87.79-1.46-3.95-9.38-15.94-23.91-25.06C335,138,328.38,125.61,330.45,126.28Z" transform="translate(-81.5 -57.54)"/></svg>