<svg id="Layer_1" data-name="Layer 1" xmlns="http://www.w3.org/2000/svg" viewBox="0 0 461.16 552.23"><defs><style>.cls-1{fill:#433627;}.cls-2{fill:#dcbd9a;stroke:#000;stroke-miterlimit:10;}.cls-3{fill:#d0ab80;}</style></defs><title>personal-icon</title><polygon class="cls-1" points="103.4 542.14 198.29 532.26 154.4 296.68 52.4 302.04 46.4 501.14 103.4 542.14"/><path class="cls-2" d="M155.5,378.12s8,64.92,17,81.9,66,113,106,144,97-10,97-10,66-55.34,73-74.67,51-111.69,50-200.33c-1-89.22-71-171-71-171s-137-87-219,0S155.5,378.12,155.5,378.12Z" transform="translate(-71.1 -63.86)"/><path class="cls-3" d="M293.5,230c8.18-4,55.21,61.51,101,94,2.89,47.25,23.65,111.71,47,178.66l-8.83,28.54,32.83,10.08,33-142.28-81-230h-120S285.32,234,293.5,230Z" transform="translate(-71.1 -63.86)"/><path class="cls-1" d="M332.09,210.49c-13.24,27.56-32.92,49.51-62,63.29C235.55,291.35,198,330,153.09,378.12l19,227.88L84.2,599.33c3-42-15.89-62.42-12.75-93.08,12.73-124.19,26.28-240,45.64-295.75,0,0,41.1-110.12,88-127.49,46.41-17.19,119.43-33,212,.7,104.42,61.3,100,190.55,100,190.55,33.73,91.41,2.44,313.06-10,314.75-7.44,1-117.59-9.21-117.59-9.21s55.26-51.13,62.77-79.75c0,0-20.81-172.78-26.18-187.27-3.12-8.42-20-34-51-53.45C341.84,235.43,327.67,209.07,332.09,210.49Z" transform="translate(-71.1 -63.86)"/></svg>