<svg id="Layer_1" data-name="Layer 1" xmlns="http://www.w3.org/2000/svg" viewBox="0 0 100 100"><defs><style>.cls-1{fill:none;stroke:#ed1c24;stroke-miterlimit:10;stroke-width:2px;}.cls-2{fill:#ed1c24;}</style></defs><title>icons</title><path class="cls-1" d="M78.36,84.32c-22.58,7-33.08,7.37-56.13,0C8.86,80.05,8.43,44,22.23,28.19c14-16,40.76-15.52,56.13,0C93.1,47.48,91.76,80.17,78.36,84.32Z"/><path class="cls-1" d="M67.79,66.45c-7.42,11.43-29.19,10-34.63,0-1-1.92,0-8.39,0-8.39,0-3.94,3.94-7.13,8.8-7.13H59c4.86,0,8.8,3.19,8.8,7.13C67.79,58.06,69,64.59,67.79,66.45Z"/><ellipse class="cls-2" cx="57.09" cy="62.06" rx="2.2" ry="4.26"/><ellipse class="cls-2" cx="44.07" cy="62.06" rx="2.2" ry="4.26"/><circle class="cls-2" cx="71.15" cy="42.93" r="4.7"/><circle class="cls-2" cx="27.99" cy="42.93" r="4.7"/><path class="cls-2" d="M74.28,24A39.55,39.55,0,0,1,86.55,43.85s10.19-21.71,5.92-26C89.09,14.45,74.28,24,74.28,24Z"/><path class="cls-2" d="M25.72,25.14C19.65,30.08,15.82,36.93,13.45,45c0,0-10.18-21.71-5.92-26C10.91,15.62,25.72,25.14,25.72,25.14Z"/></svg>