<svg id="Layer_1" data-name="Layer 1" xmlns="http://www.w3.org/2000/svg" xmlns:xlink="http://www.w3.org/1999/xlink" viewBox="0 0 1516.38 427.48"><defs><style>.cls-1,.cls-16,.cls-17,.cls-18,.cls-19,.cls-4,.cls-7{fill:none;}.cls-2{fill:#036;}.cls-3{fill:#282f45;}.cls-4{stroke:#ff0;}.cls-10,.cls-11,.cls-12,.cls-13,.cls-14,.cls-16,.cls-17,.cls-18,.cls-19,.cls-20,.cls-23,.cls-26,.cls-27,.cls-30,.cls-4,.cls-7{stroke-miterlimit:10;}.cls-5{font-size:15.63px;fill:#ff0;font-family:AmericanTypewriter, American Typewriter;}.cls-6,.cls-8,.cls-9{fill:#a8a800;}.cls-7{stroke:#474700;}.cls-8{font-size:8.93px;}.cls-8,.cls-9{font-family:Silom, Silom;}.cls-9{font-size:6.4px;}.cls-10{fill:#3d46a2;}.cls-10,.cls-11,.cls-12,.cls-13,.cls-14,.cls-20,.cls-23,.cls-30{stroke:#000;}.cls-11,.cls-28{fill:#fff;}.cls-12{fill:#fcbc4b;}.cls-13{fill:#ff2600;}.cls-14{fill:#bfbfbf;}.cls-15{font-size:25.47px;}.cls-15,.cls-31{font-family:MyriadPro-Regular, Myriad Pro;}.cls-16,.cls-17,.cls-18,.cls-19{stroke:#fffa00;stroke-width:20px;}.cls-17{stroke-dasharray:12.96 12.96;}.cls-18{stroke-dasharray:12.81 12.81;}.cls-19{stroke-dasharray:9.92 9.92;}.cls-20{fill:#dcbd9a;}.cls-21{fill:#c4a178;}.cls-22{fill:#433627;}.cls-23{fill:#b0967c;}.cls-24{fill:#7d654a;}.cls-25{clip-path:url(#clip-path);}.cls-26,.cls-27{stroke:#fff;}.cls-27{fill:#003;}.cls-29{clip-path:url(#clip-path-2);}.cls-30{fill:#ffc;}.cls-31{font-size:12px;}.cls-32{clip-path:url(#clip-path-3);}</style><clipPath id="clip-path"><circle class="cls-1" cx="567.7" cy="180.52" r="157.07"/></clipPath><clipPath id="clip-path-2"><circle class="cls-1" cx="947.09" cy="182.11" r="157.07"/></clipPath><clipPath id="clip-path-3"><rect id="screen" class="cls-1" x="882.75" y="118.67" width="120" height="197.73"/></clipPath></defs><title>spend-flow</title><circle class="cls-2" cx="188.32" cy="180.52" r="157.07"/><rect id="card" class="cls-3" x="72.08" y="119.46" width="179.63" height="104.78" rx="6.31" ry="6.31" transform="translate(94.72 -54.49) rotate(26.76)"/><circle class="cls-4" cx="118.8" cy="114.54" r="14.46" transform="translate(-36.96 169.04) rotate(-63.24)"/><circle class="cls-4" cx="118.8" cy="114.54" r="10.63" transform="translate(-36.96 169.04) rotate(-63.24)"/><text class="cls-5" transform="matrix(0.89, 0.45, -0.45, 0.89, 112.1, 117.02)">S</text><rect class="cls-6" x="89.64" y="132.21" width="24.24" height="21.85" rx="9.95" ry="9.95" transform="translate(75.35 -30.49) rotate(26.76)"/><rect class="cls-7" x="97.44" y="136.05" width="8.65" height="14.16" transform="translate(75.35 -30.49) rotate(26.76)"/><rect class="cls-7" x="97.44" y="133.6" width="8.65" height="19.06" transform="translate(-71.86 169.55) rotate(-63.24)"/><text class="cls-8" transform="matrix(0.89, 0.45, -0.45, 0.89, 83.24, 158.82)"><tspan xml:space="preserve">4520    1900    3731    0053</tspan></text><text class="cls-9" transform="matrix(0.89, 0.45, -0.45, 0.89, 85.89, 176.07)">02/12</text><text class="cls-9" transform="matrix(0.89, 0.45, -0.45, 0.89, 120.27, 193.4)">02/20</text><rect class="cls-10" x="181.31" y="95.26" width="105.07" height="140.1"/><rect class="cls-11" x="188.32" y="135.38" width="18.47" height="18.47"/><rect class="cls-11" x="212.51" y="135.38" width="18.47" height="18.47"/><rect class="cls-12" x="236.71" y="135.38" width="18.47" height="18.47"/><rect class="cls-13" x="260.91" y="135.38" width="18.47" height="18.47"/><rect class="cls-11" x="188.32" y="160.22" width="18.47" height="18.47"/><rect class="cls-11" x="212.51" y="160.22" width="18.47" height="18.47"/><rect class="cls-11" x="236.71" y="160.22" width="18.47" height="18.47"/><rect class="cls-11" x="260.91" y="160.22" width="18.47" height="18.47"/><rect class="cls-11" x="188.32" y="185.05" width="18.47" height="18.47"/><rect class="cls-11" x="212.51" y="185.05" width="18.47" height="18.47"/><rect class="cls-11" x="236.71" y="185.05" width="18.47" height="18.47"/><rect class="cls-11" x="260.91" y="185.05" width="18.47" height="18.47"/><rect class="cls-11" x="188.32" y="209.89" width="18.47" height="18.47"/><rect class="cls-11" x="212.51" y="209.89" width="18.47" height="18.47"/><rect class="cls-11" x="236.71" y="209.89" width="18.47" height="18.47"/><rect class="cls-11" x="260.91" y="209.89" width="18.47" height="18.47"/><rect class="cls-14" x="188.32" y="104.18" width="91.06" height="24.84"/><text class="cls-15" transform="translate(261.23 124.24)">0</text><circle class="cls-2" cx="947.09" cy="182.11" r="157.07"/><circle class="cls-2" cx="567.7" cy="180.52" r="157.07"/><circle class="cls-2" cx="1326.48" cy="189.69" r="157.07"/><line class="cls-16" x1="1265.65" y1="243.72" x2="1270.78" y2="240.6"/><line class="cls-17" x1="1281.86" y1="233.88" x2="1320.64" y2="210.35"/><polyline class="cls-16" points="1326.18 206.98 1331.31 203.87 1336.41 207.01"/><line class="cls-18" x1="1347.32" y1="213.73" x2="1385.49" y2="237.22"/><line class="cls-16" x1="1390.95" y1="240.57" x2="1396.06" y2="243.72"/><line class="cls-16" x1="1331.31" y1="203.87" x2="1331.31" y2="197.87"/><line class="cls-19" x1="1331.31" y1="187.95" x2="1331.31" y2="153.25"/><line class="cls-16" x1="1331.31" y1="148.29" x2="1331.31" y2="142.29"/><path class="cls-20" d="M1356.15,256.56s-4.9-35.5-3.39-47.27c1-7.62,6.25-18.5,23.7-22.52s26.3-3.43,34.64-1.05a35.88,35.88,0,0,1,20.57,15.34c1.22,2,4.66,22,2.08,35.25a146.23,146.23,0,0,0-2.86,23.71c-.13,1.68-16.13,37.7-23.44,40.15-6.48,2.17-23.08,2.63-27-1.26s-21.45-28.5-21.45-28.5Z"/><path class="cls-21" d="M1401.35,203.84s7.69,15.59,12.13,15.57c7,0,15.34,12.36,15.34,12.36s-3.05,25.71-1.37,30.67l-.5,6.6,3.76-8.84c.17-10.84,1.62-17.83,3.46-28.44l-9.7-29.29-24-10.53Z"/><path class="cls-22" d="M1409.1,203.35s-7.29,8.7-14.32,10.3l-7,1.6s7.81-5.72,8.07-7.78c0,0-12.24.92-19,7.78s-9.12.92-13,6.64-7.92,18.58-9.45,17.54c-4.16-5-7-31.74,3.22-44.55s60-28.16,75.09,6c2.52,5.7,3.82,19.15,1.85,31.34-4.4-8.13-8.77-14.88-15.89-17.93C1413.56,212.8,1410.57,209,1409.1,203.35Z"/><path class="cls-23" d="M1227.55,256.56s-4.9-35.5-3.39-47.27c1-7.62,6.25-18.5,23.7-22.52s26.3-3.43,34.64-1.05a35.88,35.88,0,0,1,20.57,15.34c1.22,2,4.66,22,2.08,35.25a146.23,146.23,0,0,0-2.86,23.71c-.13,1.68-16.13,37.7-23.44,40.15-6.48,2.17-23.08,2.63-27-1.26s-21.45-28.5-21.45-28.5Z"/><path class="cls-24" d="M1272.75,203.84s7.69,15.59,12.13,15.57c7,0,15.34,12.36,15.34,12.36s-3.05,25.71-1.37,30.67l-.5,6.6,3.76-8.84c.17-10.84,1.62-17.83,3.46-28.44l-9.7-29.29-24-10.53Z"/><path class="cls-22" d="M1280.5,203.35s-7.29,8.7-14.32,10.3l-7,1.6s7.81-5.72,8.07-7.78c0,0-12.24.92-19,7.78s-9.12.92-13,6.64-7.92,18.58-9.45,17.54c-4.16-5-7-31.74,3.22-44.55s60-28.16,75.09,6c2.52,5.7,3.82,19.15,1.85,31.34-4.4-8.13-8.77-14.88-15.89-17.93C1285,212.8,1282,209,1280.5,203.35Z"/><polygon class="cls-22" points="1301.23 164.57 1321.37 162.47 1312.05 112.46 1290.4 113.6 1289.13 155.86 1301.23 164.57"/><path class="cls-20" d="M1297.19,116.19s1.7,13.78,3.61,17.39,14,24,22.5,30.56S1343.9,162,1343.9,162s14-11.75,15.5-15.85,10.83-23.71,10.61-42.53-15.07-36.3-15.07-36.3-29.08-18.47-46.49,0S1297.19,116.19,1297.19,116.19Z"/><path class="cls-21" d="M1326.49,84.75c1.74-.85,11.72,13.06,21.44,20,.61,10,5,23.71,10,37.93l-1.88,6.06,7,2.14,7-30.2-17.2-48.83h-25.47S1324.75,85.6,1326.49,84.75Z"/><path class="cls-22" d="M1334.68,80.6A27.34,27.34,0,0,1,1321.52,94c-7.33,3.73-15.31,11.94-24.84,22.15l4,48.37-18.66-1.42c.64-8.92-3.37-13.25-2.71-19.76,2.7-26.36,5.58-50.94,9.69-62.78,0,0,8.73-23.38,18.68-27.06s25.35-7,45,.15c22.17,13,21.23,40.45,21.23,40.45,7.16,19.41.52,66.46-2.12,66.82-1.58.21-25-2-25-2s11.73-10.85,13.33-16.93c0,0-4.42-36.68-5.56-39.75-.66-1.79-4.25-7.22-10.83-11.35C1336.75,85.9,1333.74,80.3,1334.68,80.6Z"/><g class="cls-25"><rect class="cls-11" x="630.86" y="148.44" width="3.41" height="24.55"/><rect class="cls-11" x="491.77" y="146.4" width="3.41" height="23.86"/><rect class="cls-11" x="491.77" y="177.76" width="3.41" height="23.86"/><rect id="body" class="cls-11" x="495.18" y="96.63" width="136.36" height="262.5" rx="20.48" ry="20.48"/><circle id="buttom" class="cls-11" cx="563.36" cy="336.63" r="12.27"/><g id="mic"><rect class="cls-26" x="553.76" y="104.85" width="27.89" height="4.41" rx="2.21" ry="2.21"/><circle class="cls-26" cx="547.6" cy="107.02" r="2.54"/></g><rect id="screen-2" data-name="screen" class="cls-27" x="503.36" y="117.08" width="120" height="197.73"/><rect class="cls-11" x="630.86" y="148.44" width="3.41" height="24.55"/><rect class="cls-11" x="491.77" y="146.4" width="3.41" height="23.86"/><rect class="cls-11" x="491.77" y="177.76" width="3.41" height="23.86"/><rect id="body-2" data-name="body" class="cls-11" x="495.18" y="96.63" width="136.36" height="262.5" rx="20.48" ry="20.48"/><circle id="buttom-2" data-name="buttom" class="cls-11" cx="563.36" cy="336.63" r="12.27"/><g id="mic-2" data-name="mic"><rect class="cls-26" x="553.76" y="104.85" width="27.89" height="4.41" rx="2.21" ry="2.21"/><circle class="cls-26" cx="547.6" cy="107.02" r="2.54"/></g><rect id="screen-3" data-name="screen" class="cls-27" x="503.36" y="117.08" width="120" height="197.73"/><rect class="cls-28" x="606.78" y="122.68" width="9.73" height="3.15"/><rect class="cls-28" x="614.07" y="123.55" width="4.29" height="1.4"/></g><g class="cls-29"><polygon class="cls-30" points="1077.88 264.05 999.93 314.78 927.53 203.51 932.79 193.82 946.09 191.44 951.58 181.6 964.42 179.51 971.3 168.76 983.44 167.13 991.48 155.63 1005.48 152.79 1077.88 264.05"/><text class="cls-31" transform="matrix(0.84, -0.55, 0.55, 0.84, 978.69, 208.12)">$10.20<tspan x="0" y="14.4">$07.12</tspan><tspan x="0" y="43.2">$50.79</tspan><tspan x="0" y="57.6">$27.29</tspan></text><rect class="cls-11" x="1010.25" y="150.04" width="3.41" height="24.55"/><rect class="cls-11" x="871.15" y="147.99" width="3.41" height="23.86"/><rect class="cls-11" x="871.15" y="179.35" width="3.41" height="23.86"/><rect id="body-3" data-name="body" class="cls-11" x="874.56" y="98.22" width="136.36" height="262.5" rx="20.48" ry="20.48"/><circle id="buttom-3" data-name="buttom" class="cls-11" cx="942.75" cy="338.22" r="12.27"/><g id="mic-3" data-name="mic"><rect class="cls-26" x="933.15" y="106.44" width="27.89" height="4.41" rx="2.21" ry="2.21"/><circle class="cls-26" cx="926.99" cy="108.61" r="2.54"/></g><rect id="screen-4" data-name="screen" class="cls-27" x="882.75" y="118.67" width="120" height="197.73"/><rect class="cls-11" x="1010.25" y="150.04" width="3.41" height="24.55"/><rect class="cls-11" x="871.15" y="147.99" width="3.41" height="23.86"/><rect class="cls-11" x="871.15" y="179.35" width="3.41" height="23.86"/><rect id="body-4" data-name="body" class="cls-11" x="874.56" y="98.22" width="136.36" height="262.5" rx="20.48" ry="20.48"/><circle id="buttom-4" data-name="buttom" class="cls-11" cx="942.75" cy="338.22" r="12.27"/><g id="mic-4" data-name="mic"><rect class="cls-26" x="933.15" y="106.44" width="27.89" height="4.41" rx="2.21" ry="2.21"/><circle class="cls-26" cx="926.99" cy="108.61" r="2.54"/></g><rect id="screen-5" data-name="screen" class="cls-27" x="882.75" y="118.67" width="120" height="197.73"/><g class="cls-32"><polygon class="cls-30" points="1077.88 264.05 999.93 314.78 927.53 203.51 932.79 193.82 946.09 191.44 951.58 181.6 964.42 179.51 971.3 168.76 983.44 167.13 991.48 155.63 1005.48 152.79 1077.88 264.05"/><text class="cls-31" transform="matrix(0.84, -0.55, 0.55, 0.84, 978.69, 208.12)">$10.20<tspan x="0" y="14.4">$07.12</tspan><tspan x="0" y="43.2">$50.79</tspan><tspan x="0" y="57.6">$27.29</tspan></text></g><rect class="cls-28" x="986.16" y="124.27" width="9.73" height="3.15"/><rect class="cls-28" x="993.46" y="125.14" width="4.29" height="1.4"/></g><path d="M17.28,377.5a30.26,30.26,0,0,1,5-.39c2.58,0,4.47.6,5.67,1.68A5.44,5.44,0,0,1,29.73,383a6,6,0,0,1-1.56,4.32A8.38,8.38,0,0,1,22,389.56a9,9,0,0,1-2.1-.18v8.1H17.28Zm2.61,9.75a8.76,8.76,0,0,0,2.16.21c3.15,0,5.07-1.53,5.07-4.32s-1.89-4-4.77-4a11,11,0,0,0-2.46.21Z"/><path d="M40.41,397.48l-.21-1.83h-.09a5.41,5.41,0,0,1-4.44,2.16,4.14,4.14,0,0,1-4.44-4.17c0-3.51,3.12-5.43,8.73-5.4v-.3c0-1.2-.33-3.36-3.3-3.36a7.23,7.23,0,0,0-3.78,1.08l-.6-1.74A9,9,0,0,1,37,382.63c4.44,0,5.52,3,5.52,5.94V394a20.47,20.47,0,0,0,.24,3.48ZM40,390.07c-2.88-.06-6.15.45-6.15,3.27a2.34,2.34,0,0,0,2.49,2.52,3.61,3.61,0,0,0,3.51-2.43,2.74,2.74,0,0,0,.15-.84Z"/><path d="M47.55,383l3.18,8.58c.33,1,.69,2.1.93,3h.06c.27-.87.57-2,.93-3L55.53,383h2.79l-4,10.35c-1.89,5-3.18,7.53-5,9.09a7.16,7.16,0,0,1-3.24,1.71l-.66-2.22a7,7,0,0,0,2.31-1.29A8,8,0,0,0,50,397.66a1.89,1.89,0,0,0,.21-.63,2.3,2.3,0,0,0-.18-.69L44.67,383Z"/><path d="M68.13,383,70,390.34c.42,1.62.81,3.12,1.08,4.62h.09c.33-1.47.81-3,1.29-4.59L74.88,383H77.1l2.25,7.26c.54,1.74,1,3.27,1.29,4.74h.09a43.7,43.7,0,0,1,1.11-4.71L83.91,383h2.61l-4.68,14.52h-2.4l-2.22-6.93a48.29,48.29,0,0,1-1.29-4.77h-.06a42.94,42.94,0,0,1-1.32,4.8l-2.34,6.9h-2.4L65.43,383Z"/><path d="M92.1,378.88a1.64,1.64,0,0,1-3.27,0,1.61,1.61,0,0,1,1.65-1.65A1.57,1.57,0,0,1,92.1,378.88Zm-2.94,18.6V383H91.8v14.52Z"/><path d="M99.36,378.79V383h3.78v2H99.36v7.83c0,1.8.51,2.82,2,2.82a5.85,5.85,0,0,0,1.53-.18l.12,2a6.46,6.46,0,0,1-2.34.36,3.66,3.66,0,0,1-2.85-1.11c-.75-.78-1-2.07-1-3.78V385H94.53v-2h2.25v-3.48Z"/><path d="M106.11,376.18h2.64v9.06h.06a4.9,4.9,0,0,1,1.89-1.86,5.44,5.44,0,0,1,2.7-.75c2,0,5.07,1.2,5.07,6.21v8.64h-2.64v-8.34c0-2.34-.87-4.32-3.36-4.32a3.79,3.79,0,0,0-3.54,2.64,3.2,3.2,0,0,0-.18,1.26v8.76h-2.64Z"/><path d="M130.08,383l3.18,8.58c.33,1,.69,2.1.93,3h.06c.27-.87.57-2,.93-3l2.88-8.52h2.79l-4,10.35c-1.89,5-3.18,7.53-5,9.09a7.16,7.16,0,0,1-3.24,1.71l-.66-2.22a7,7,0,0,0,2.31-1.29,8,8,0,0,0,2.22-2.94,1.89,1.89,0,0,0,.21-.63,2.3,2.3,0,0,0-.18-.69L127.2,383Z"/><path d="M156.09,390.1c0,5.37-3.72,7.71-7.23,7.71-3.93,0-7-2.88-7-7.47,0-4.86,3.18-7.71,7.2-7.71S156.09,385.66,156.09,390.1Zm-11.52.15c0,3.18,1.83,5.58,4.41,5.58s4.41-2.37,4.41-5.64c0-2.46-1.23-5.58-4.35-5.58S144.57,387.49,144.57,390.25Z"/><path d="M171.57,393.52c0,1.5,0,2.82.12,4h-2.34l-.15-2.37h-.06a5.46,5.46,0,0,1-4.8,2.7c-2.28,0-5-1.26-5-6.36V383H162v8c0,2.76.84,4.62,3.24,4.62a3.82,3.82,0,0,0,3.48-2.4,3.86,3.86,0,0,0,.24-1.35V383h2.64Z"/><path d="M175.95,387.49c0-1.71,0-3.18-.12-4.53h2.31l.09,2.85h.12a4.36,4.36,0,0,1,4-3.18,2.85,2.85,0,0,1,.75.09v2.49a4,4,0,0,0-.9-.09c-1.86,0-3.18,1.41-3.54,3.39a7.43,7.43,0,0,0-.12,1.23v7.74h-2.61Z"/><path d="M191.85,394.3a9.25,9.25,0,0,0,4.68,1.32c2.67,0,4.23-1.41,4.23-3.45s-1.08-3-3.81-4c-3.3-1.17-5.34-2.88-5.34-5.73,0-3.15,2.61-5.49,6.54-5.49a9.18,9.18,0,0,1,4.47,1l-.72,2.13a8.06,8.06,0,0,0-3.84-1c-2.76,0-3.81,1.65-3.81,3,0,1.89,1.23,2.82,4,3.9,3.42,1.32,5.16,3,5.16,5.94,0,3.12-2.31,5.82-7.08,5.82a10.45,10.45,0,0,1-5.16-1.29Z"/><path d="M206.91,387.7c0-1.86-.06-3.36-.12-4.74h2.37l.12,2.49h.06a5.71,5.71,0,0,1,5.16-2.82c3.51,0,6.15,3,6.15,7.38,0,5.22-3.18,7.8-6.6,7.8a5.09,5.09,0,0,1-4.47-2.28h-.06v7.89h-2.61Zm2.61,3.87a5.94,5.94,0,0,0,.12,1.08,4.07,4.07,0,0,0,4,3.09c2.79,0,4.41-2.28,4.41-5.61,0-2.91-1.53-5.4-4.32-5.4a4.21,4.21,0,0,0-4,3.27,4.27,4.27,0,0,0-.18,1.08Z"/><path d="M225.45,390.7c.06,3.57,2.34,5,5,5a9.55,9.55,0,0,0,4-.75l.45,1.89a11.76,11.76,0,0,1-4.83.9c-4.47,0-7.14-2.94-7.14-7.32s2.58-7.83,6.81-7.83c4.74,0,6,4.17,6,6.84a9.91,9.91,0,0,1-.09,1.23Zm7.74-1.89c0-1.68-.69-4.29-3.66-4.29-2.67,0-3.84,2.46-4,4.29Z"/><path d="M239,386.89c0-1.5,0-2.73-.12-3.93h2.34l.15,2.4h.06a5.34,5.34,0,0,1,4.8-2.73c2,0,5.13,1.2,5.13,6.18v8.67h-2.64v-8.37c0-2.34-.87-4.29-3.36-4.29a3.75,3.75,0,0,0-3.54,2.7,3.79,3.79,0,0,0-.18,1.23v8.73H239Z"/><path d="M268.2,376.18v17.55c0,1.29,0,2.76.12,3.75h-2.37l-.12-2.52h-.06a5.37,5.37,0,0,1-4.95,2.85c-3.51,0-6.21-3-6.21-7.38,0-4.83,3-7.8,6.51-7.8a4.85,4.85,0,0,1,4.38,2.22h.06v-8.67Zm-2.64,12.69a4.67,4.67,0,0,0-.12-1.11,3.88,3.88,0,0,0-3.81-3.06c-2.73,0-4.35,2.4-4.35,5.61,0,2.94,1.44,5.37,4.29,5.37a4,4,0,0,0,3.87-3.15,4.59,4.59,0,0,0,.12-1.14Z"/><path d="M272.07,396a1.76,1.76,0,0,1,1.77-1.86,1.86,1.86,0,0,1,0,3.72A1.76,1.76,0,0,1,272.07,396Zm.75-4.29-.42-14.4h2.88l-.42,14.4Z"/><path d="M296.19,396.94a9.73,9.73,0,0,1-4.17.84c-4.38,0-7.23-3-7.23-7.41a7.38,7.38,0,0,1,7.8-7.71,8.83,8.83,0,0,1,3.66.75l-.6,2a6.12,6.12,0,0,0-3.06-.69c-3.33,0-5.13,2.46-5.13,5.49,0,3.36,2.16,5.43,5,5.43a7.5,7.5,0,0,0,3.24-.72Z"/><path d="M307.32,397.48l-.21-1.83H307a5.41,5.41,0,0,1-4.44,2.16,4.14,4.14,0,0,1-4.44-4.17c0-3.51,3.12-5.43,8.73-5.4v-.3c0-1.2-.33-3.36-3.3-3.36a7.23,7.23,0,0,0-3.78,1.08l-.6-1.74a9,9,0,0,1,4.77-1.29c4.44,0,5.52,3,5.52,5.94V394a20.47,20.47,0,0,0,.24,3.48Zm-.39-7.41c-2.88-.06-6.15.45-6.15,3.27a2.34,2.34,0,0,0,2.49,2.52,3.61,3.61,0,0,0,3.51-2.43,2.74,2.74,0,0,0,.15-.84Z"/><path d="M313.74,387.49c0-1.71,0-3.18-.12-4.53h2.31l.09,2.85h.12a4.36,4.36,0,0,1,4-3.18,2.85,2.85,0,0,1,.75.09v2.49a4,4,0,0,0-.9-.09c-1.86,0-3.18,1.41-3.54,3.39a7.43,7.43,0,0,0-.12,1.23v7.74h-2.61Z"/><path d="M335.79,376.18v17.55c0,1.29,0,2.76.12,3.75h-2.37l-.12-2.52h-.06a5.37,5.37,0,0,1-4.95,2.85c-3.51,0-6.21-3-6.21-7.38,0-4.83,3-7.8,6.51-7.8a4.85,4.85,0,0,1,4.38,2.22h.06v-8.67Zm-2.64,12.69a4.67,4.67,0,0,0-.12-1.11,3.88,3.88,0,0,0-3.81-3.06c-2.73,0-4.35,2.4-4.35,5.61,0,2.94,1.44,5.37,4.29,5.37a4,4,0,0,0,3.87-3.15,4.59,4.59,0,0,0,.12-1.14Z"/><path d="M339.24,395.92A1.77,1.77,0,0,1,341,394a1.89,1.89,0,1,1-1.8,1.89Z"/><path d="M412.55,394.3a9.25,9.25,0,0,0,4.68,1.32c2.67,0,4.23-1.41,4.23-3.45s-1.08-3-3.81-4c-3.3-1.17-5.34-2.88-5.34-5.73,0-3.15,2.61-5.49,6.54-5.49a9.18,9.18,0,0,1,4.47,1l-.72,2.13a8.06,8.06,0,0,0-3.84-1c-2.76,0-3.81,1.65-3.81,3,0,1.89,1.23,2.82,4,3.9,3.42,1.32,5.16,3,5.16,5.94,0,3.12-2.31,5.82-7.08,5.82a10.45,10.45,0,0,1-5.16-1.29Z"/><path d="M429.26,390.7c.06,3.57,2.34,5,5,5a9.55,9.55,0,0,0,4-.75l.45,1.89a11.76,11.76,0,0,1-4.83.9c-4.47,0-7.14-2.94-7.14-7.32s2.58-7.83,6.81-7.83c4.74,0,6,4.17,6,6.84a9.91,9.91,0,0,1-.09,1.23Zm7.74-1.89c0-1.68-.69-4.29-3.66-4.29-2.67,0-3.84,2.46-4,4.29Z"/><path d="M444.29,390.7c.06,3.57,2.34,5,5,5a9.55,9.55,0,0,0,4-.75l.45,1.89a11.76,11.76,0,0,1-4.83.9c-4.47,0-7.14-2.94-7.14-7.32s2.58-7.83,6.81-7.83c4.74,0,6,4.17,6,6.84a9.91,9.91,0,0,1-.09,1.23Zm7.74-1.89c0-1.68-.69-4.29-3.66-4.29-2.67,0-3.84,2.46-4,4.29Z"/><path d="M467.39,378.79V383h3.78v2h-3.78v7.83c0,1.8.51,2.82,2,2.82a5.85,5.85,0,0,0,1.53-.18l.12,2a6.46,6.46,0,0,1-2.34.36,3.66,3.66,0,0,1-2.85-1.11c-.75-.78-1-2.07-1-3.78V385h-2.25v-2h2.25v-3.48Z"/><path d="M474.14,387.49c0-1.71,0-3.18-.12-4.53h2.31l.09,2.85h.12a4.36,4.36,0,0,1,4-3.18,2.85,2.85,0,0,1,.75.09v2.49a4,4,0,0,0-.9-.09c-1.86,0-3.18,1.41-3.54,3.39a7.43,7.43,0,0,0-.12,1.23v7.74h-2.61Z"/><path d="M491.84,397.48l-.21-1.83h-.09a5.41,5.41,0,0,1-4.44,2.16,4.14,4.14,0,0,1-4.44-4.17c0-3.51,3.12-5.43,8.73-5.4v-.3c0-1.2-.33-3.36-3.3-3.36a7.23,7.23,0,0,0-3.78,1.08l-.6-1.74a9,9,0,0,1,4.77-1.29c4.44,0,5.52,3,5.52,5.94V394a20.47,20.47,0,0,0,.24,3.48Zm-.39-7.41c-2.88-.06-6.15.45-6.15,3.27a2.34,2.34,0,0,0,2.49,2.52,3.61,3.61,0,0,0,3.51-2.43,2.75,2.75,0,0,0,.15-.84Z"/><path d="M498.26,386.89c0-1.5,0-2.73-.12-3.93h2.34l.15,2.4h.06a5.34,5.34,0,0,1,4.8-2.73c2,0,5.13,1.2,5.13,6.18v8.67H508v-8.37c0-2.34-.87-4.29-3.36-4.29a3.75,3.75,0,0,0-3.54,2.7,3.79,3.79,0,0,0-.18,1.23v8.73h-2.64Z"/><path d="M514.55,394.78a6.92,6.92,0,0,0,3.48,1c1.92,0,2.82-1,2.82-2.16s-.75-1.95-2.7-2.67c-2.61-.93-3.84-2.37-3.84-4.11,0-2.34,1.89-4.26,5-4.26a7.24,7.24,0,0,1,3.57.9l-.66,1.92a5.64,5.64,0,0,0-3-.84c-1.56,0-2.43.9-2.43,2s.87,1.74,2.76,2.46c2.52,1,3.81,2.22,3.81,4.38,0,2.55-2,4.35-5.43,4.35a8.28,8.28,0,0,1-4.08-1Z"/><path d="M534.83,397.48l-.21-1.83h-.09a5.41,5.41,0,0,1-4.44,2.16,4.14,4.14,0,0,1-4.44-4.17c0-3.51,3.12-5.43,8.73-5.4v-.3c0-1.2-.33-3.36-3.3-3.36a7.23,7.23,0,0,0-3.78,1.08l-.6-1.74a9,9,0,0,1,4.77-1.29c4.44,0,5.52,3,5.52,5.94V394a20.37,20.37,0,0,0,.24,3.48Zm-.39-7.41c-2.88-.06-6.15.45-6.15,3.27a2.34,2.34,0,0,0,2.49,2.52,3.61,3.61,0,0,0,3.51-2.43,2.76,2.76,0,0,0,.15-.84Z"/><path d="M551.6,396.94a9.72,9.72,0,0,1-4.17.84c-4.38,0-7.23-3-7.23-7.41a7.38,7.38,0,0,1,7.8-7.71,8.82,8.82,0,0,1,3.66.75l-.6,2a6.12,6.12,0,0,0-3.06-.69c-3.33,0-5.13,2.46-5.13,5.49,0,3.36,2.16,5.43,5,5.43a7.5,7.5,0,0,0,3.24-.72Z"/><path d="M558.26,378.79V383H562v2h-3.78v7.83c0,1.8.51,2.82,2,2.82a5.86,5.86,0,0,0,1.53-.18l.12,2a6.47,6.47,0,0,1-2.34.36,3.66,3.66,0,0,1-2.85-1.11c-.75-.78-1-2.07-1-3.78V385h-2.25v-2h2.25v-3.48Z"/><path d="M567.95,378.88a1.63,1.63,0,0,1-3.27,0,1.61,1.61,0,0,1,1.65-1.65A1.57,1.57,0,0,1,567.95,378.88ZM565,397.48V383h2.64v14.52Z"/><path d="M585.17,390.1c0,5.37-3.72,7.71-7.23,7.71-3.93,0-7-2.88-7-7.47,0-4.86,3.18-7.71,7.2-7.71C582.35,382.63,585.17,385.66,585.17,390.1Zm-11.52.15c0,3.18,1.83,5.58,4.41,5.58s4.41-2.37,4.41-5.64c0-2.46-1.23-5.58-4.35-5.58S573.65,387.49,573.65,390.25Z"/><path d="M588.5,386.89c0-1.5,0-2.73-.12-3.93h2.34l.15,2.4h.06a5.34,5.34,0,0,1,4.8-2.73c2,0,5.13,1.2,5.13,6.18v8.67h-2.64v-8.37c0-2.34-.87-4.29-3.36-4.29a3.75,3.75,0,0,0-3.54,2.7,3.79,3.79,0,0,0-.18,1.23v8.73H588.5Z"/><path d="M604.79,394.78a6.92,6.92,0,0,0,3.48,1c1.92,0,2.82-1,2.82-2.16s-.75-1.95-2.7-2.67c-2.61-.93-3.84-2.37-3.84-4.11,0-2.34,1.89-4.26,5-4.26a7.25,7.25,0,0,1,3.57.9l-.66,1.92a5.65,5.65,0,0,0-3-.84c-1.56,0-2.43.9-2.43,2s.87,1.74,2.76,2.46c2.52,1,3.81,2.22,3.81,4.38,0,2.55-2,4.35-5.43,4.35a8.28,8.28,0,0,1-4.08-1Z"/><path d="M626.33,378.88a1.63,1.63,0,0,1-3.27,0,1.61,1.61,0,0,1,1.65-1.65A1.57,1.57,0,0,1,626.33,378.88Zm-2.94,18.6V383H626v14.52Z"/><path d="M630.41,386.89c0-1.5,0-2.73-.12-3.93h2.34l.15,2.4h.06a5.34,5.34,0,0,1,4.8-2.73c2,0,5.13,1.2,5.13,6.18v8.67h-2.64v-8.37c0-2.34-.87-4.29-3.36-4.29a3.75,3.75,0,0,0-3.54,2.7,3.79,3.79,0,0,0-.18,1.23v8.73h-2.64Z"/><path d="M653.41,387.49c0-1.71,0-3.18-.12-4.53h2.31l.09,2.85h.12a4.36,4.36,0,0,1,4-3.18,2.85,2.85,0,0,1,.75.09v2.49a4,4,0,0,0-.9-.09c-1.86,0-3.18,1.41-3.54,3.39a7.37,7.37,0,0,0-.12,1.23v7.74h-2.61Z"/><path d="M664.4,390.7c.06,3.57,2.34,5,5,5a9.54,9.54,0,0,0,4-.75l.45,1.89a11.76,11.76,0,0,1-4.83.9c-4.47,0-7.14-2.94-7.14-7.32s2.58-7.83,6.81-7.83c4.74,0,6,4.17,6,6.84a9.91,9.91,0,0,1-.09,1.23Zm7.74-1.89c0-1.68-.69-4.29-3.66-4.29-2.67,0-3.84,2.46-4,4.29Z"/><path d="M686,397.48l-.21-1.83h-.09a5.41,5.41,0,0,1-4.44,2.16,4.14,4.14,0,0,1-4.44-4.17c0-3.51,3.12-5.43,8.73-5.4v-.3c0-1.2-.33-3.36-3.3-3.36a7.23,7.23,0,0,0-3.78,1.08l-.6-1.74a9,9,0,0,1,4.77-1.29c4.44,0,5.52,3,5.52,5.94V394a20.37,20.37,0,0,0,.24,3.48Zm-.39-7.41c-2.88-.06-6.15.45-6.15,3.27a2.34,2.34,0,0,0,2.49,2.52,3.61,3.61,0,0,0,3.51-2.43,2.76,2.76,0,0,0,.15-.84Z"/><path d="M692.41,376.18h2.64v21.3h-2.64Z"/><path d="M705.61,388.39v2H698.2v-2Z"/><path d="M711.88,378.79V383h3.78v2h-3.78v7.83c0,1.8.51,2.82,2,2.82a5.86,5.86,0,0,0,1.53-.18l.12,2a6.47,6.47,0,0,1-2.34.36,3.66,3.66,0,0,1-2.85-1.11c-.75-.78-1-2.07-1-3.78V385h-2.25v-2h2.25v-3.48Z"/><path d="M721.57,378.88a1.63,1.63,0,0,1-3.27,0,1.61,1.61,0,0,1,1.65-1.65A1.57,1.57,0,0,1,721.57,378.88Zm-2.94,18.6V383h2.64v14.52Z"/><path d="M725.65,386.89c0-1.5,0-2.73-.12-3.93h2.31l.12,2.34h.09a5,5,0,0,1,4.56-2.67,4.29,4.29,0,0,1,4.11,2.91h.06a6,6,0,0,1,1.62-1.89,5,5,0,0,1,3.21-1c1.92,0,4.77,1.26,4.77,6.3v8.55H743.8v-8.22c0-2.79-1-4.47-3.15-4.47a3.42,3.42,0,0,0-3.12,2.4,4.34,4.34,0,0,0-.21,1.32v9h-2.58v-8.7c0-2.31-1-4-3-4a3.61,3.61,0,0,0-3.27,2.64,3.65,3.65,0,0,0-.21,1.29v8.76h-2.58Z"/><path d="M752.14,390.7c.06,3.57,2.34,5,5,5a9.54,9.54,0,0,0,4-.75l.45,1.89a11.76,11.76,0,0,1-4.83.9c-4.47,0-7.14-2.94-7.14-7.32s2.58-7.83,6.81-7.83c4.74,0,6,4.17,6,6.84a9.91,9.91,0,0,1-.09,1.23Zm7.74-1.89c0-1.68-.69-4.29-3.66-4.29-2.67,0-3.84,2.46-4,4.29Z"/><path d="M764.71,395.92a1.77,1.77,0,0,1,1.8-1.89,1.89,1.89,0,1,1-1.8,1.89Z"/><path d="M870.38,394.3a9.25,9.25,0,0,0,4.68,1.32c2.67,0,4.23-1.41,4.23-3.45,0-1.89-1.08-3-3.81-4-3.3-1.17-5.34-2.88-5.34-5.73,0-3.15,2.61-5.49,6.54-5.49a9.18,9.18,0,0,1,4.47,1l-.72,2.13a8.05,8.05,0,0,0-3.84-1c-2.76,0-3.81,1.65-3.81,3,0,1.89,1.23,2.82,4,3.9,3.42,1.32,5.16,3,5.16,5.94s-2.31,5.82-7.08,5.82a10.44,10.44,0,0,1-5.16-1.29Z"/><path d="M885.44,386.89c0-1.5,0-2.73-.12-3.93h2.34l.15,2.4h.06a5.34,5.34,0,0,1,4.8-2.73c2,0,5.13,1.2,5.13,6.18v8.67h-2.64v-8.37c0-2.34-.87-4.29-3.36-4.29a3.75,3.75,0,0,0-3.54,2.7,3.8,3.8,0,0,0-.18,1.23v8.73h-2.64Z"/><path d="M910.13,397.48l-.21-1.83h-.09a5.41,5.41,0,0,1-4.44,2.16,4.14,4.14,0,0,1-4.44-4.17c0-3.51,3.12-5.43,8.73-5.4v-.3c0-1.2-.33-3.36-3.3-3.36a7.23,7.23,0,0,0-3.78,1.08l-.6-1.74a9,9,0,0,1,4.77-1.29c4.44,0,5.52,3,5.52,5.94V394a20.37,20.37,0,0,0,.24,3.48Zm-.39-7.41c-2.88-.06-6.15.45-6.15,3.27a2.34,2.34,0,0,0,2.49,2.52,3.61,3.61,0,0,0,3.51-2.43,2.77,2.77,0,0,0,.15-.84Z"/><path d="M916.55,387.7c0-1.86-.06-3.36-.12-4.74h2.37l.12,2.49H919a5.71,5.71,0,0,1,5.16-2.82c3.51,0,6.15,3,6.15,7.38,0,5.22-3.18,7.8-6.6,7.8a5.09,5.09,0,0,1-4.47-2.28h-.06v7.89h-2.61Zm2.61,3.87a5.89,5.89,0,0,0,.12,1.08,4.07,4.07,0,0,0,4,3.09c2.79,0,4.41-2.28,4.41-5.61,0-2.91-1.53-5.4-4.32-5.4a4.21,4.21,0,0,0-4,3.27,4.29,4.29,0,0,0-.18,1.08Z"/><path d="M948,397.48l-.21-1.83h-.09a5.41,5.41,0,0,1-4.44,2.16,4.14,4.14,0,0,1-4.44-4.17c0-3.51,3.12-5.43,8.73-5.4v-.3c0-1.2-.33-3.36-3.3-3.36a7.23,7.23,0,0,0-3.78,1.08l-.6-1.74a9,9,0,0,1,4.77-1.29c4.44,0,5.52,3,5.52,5.94V394a20.37,20.37,0,0,0,.24,3.48Zm-.39-7.41c-2.88-.06-6.15.45-6.15,3.27a2.34,2.34,0,0,0,2.49,2.52,3.61,3.61,0,0,0,3.51-2.43,2.77,2.77,0,0,0,.15-.84Z"/><path d="M960.79,387.49c0-1.71,0-3.18-.12-4.53H963l.09,2.85h.12a4.36,4.36,0,0,1,4-3.18,2.85,2.85,0,0,1,.75.09v2.49a4,4,0,0,0-.9-.09c-1.86,0-3.18,1.41-3.54,3.39a7.38,7.38,0,0,0-.12,1.23v7.74h-2.61Z"/><path d="M971.77,390.7c.06,3.57,2.34,5,5,5a9.54,9.54,0,0,0,4-.75l.45,1.89a11.76,11.76,0,0,1-4.83.9c-4.47,0-7.14-2.94-7.14-7.32s2.58-7.83,6.81-7.83c4.74,0,6,4.17,6,6.84a9.93,9.93,0,0,1-.09,1.23Zm7.74-1.89c0-1.68-.69-4.29-3.66-4.29-2.67,0-3.84,2.46-4,4.29Z"/><path d="M995.68,396.94a9.71,9.71,0,0,1-4.17.84c-4.38,0-7.23-3-7.23-7.41a7.38,7.38,0,0,1,7.8-7.71,8.82,8.82,0,0,1,3.66.75l-.6,2a6.11,6.11,0,0,0-3.06-.69c-3.33,0-5.13,2.46-5.13,5.49,0,3.36,2.16,5.43,5,5.43a7.5,7.5,0,0,0,3.24-.72Z"/><path d="M1001.71,378.88a1.63,1.63,0,0,1-3.27,0,1.61,1.61,0,0,1,1.65-1.65A1.57,1.57,0,0,1,1001.71,378.88Zm-2.94,18.6V383h2.64v14.52Z"/><path d="M1005.79,387.7c0-1.86-.06-3.36-.12-4.74H1008l.12,2.49h.06a5.71,5.71,0,0,1,5.16-2.82c3.51,0,6.15,3,6.15,7.38,0,5.22-3.18,7.8-6.6,7.8a5.09,5.09,0,0,1-4.47-2.28h-.06v7.89h-2.61Zm2.61,3.87a5.89,5.89,0,0,0,.12,1.08,4.07,4.07,0,0,0,4,3.09c2.79,0,4.41-2.28,4.41-5.61,0-2.91-1.53-5.4-4.32-5.4a4.21,4.21,0,0,0-4,3.27,4.29,4.29,0,0,0-.18,1.08Z"/><path d="M1026,378.79V383h3.78v2H1026v7.83c0,1.8.51,2.82,2,2.82a5.88,5.88,0,0,0,1.53-.18l.12,2a6.47,6.47,0,0,1-2.34.36,3.66,3.66,0,0,1-2.85-1.11c-.75-.78-1-2.07-1-3.78V385h-2.25v-2h2.25v-3.48Z"/><path d="M1032.07,395.92a1.77,1.77,0,0,1,1.8-1.89,1.89,1.89,0,1,1-1.8,1.89Z"/><path d="M1192,397.48l-5.13-20.22h2.76l2.4,10.23c.6,2.52,1.14,5,1.5,7h.06c.33-2,1-4.41,1.65-7l2.7-10.2h2.73l2.46,10.26c.57,2.4,1.11,4.8,1.41,6.93h.06c.42-2.22,1-4.47,1.62-7l2.67-10.2h2.67l-5.73,20.22h-2.73L1200.57,387a60.55,60.55,0,0,1-1.32-6.6h-.06a63,63,0,0,1-1.56,6.6l-2.88,10.53Z"/><path d="M1214.49,390.7c.06,3.57,2.34,5,5,5a9.54,9.54,0,0,0,4-.75l.45,1.89a11.76,11.76,0,0,1-4.83.9c-4.47,0-7.14-2.94-7.14-7.32s2.58-7.83,6.81-7.83c4.74,0,6,4.17,6,6.84a9.91,9.91,0,0,1-.09,1.23Zm7.74-1.89c0-1.68-.69-4.29-3.66-4.29-2.67,0-3.84,2.46-4,4.29Z"/><path d="M1235.46,383l1.92,7.38c.42,1.62.81,3.12,1.08,4.62h.09c.33-1.47.81-3,1.29-4.59l2.37-7.41h2.22l2.25,7.26c.54,1.74,1,3.27,1.29,4.74h.09a43.8,43.8,0,0,1,1.11-4.71l2.07-7.29h2.61l-4.68,14.52h-2.4l-2.22-6.93a48.29,48.29,0,0,1-1.29-4.77h-.06a42.84,42.84,0,0,1-1.32,4.8l-2.34,6.9h-2.4L1232.76,383Z"/><path d="M1259.43,378.88a1.63,1.63,0,0,1-3.27,0,1.61,1.61,0,0,1,1.65-1.65A1.57,1.57,0,0,1,1259.43,378.88Zm-2.94,18.6V383h2.64v14.52Z"/><path d="M1263.51,376.18h2.64v21.3h-2.64Z"/><path d="M1270.59,376.18h2.64v21.3h-2.64Z"/><path d="M1287.21,378.79V383H1291v2h-3.78v7.83c0,1.8.51,2.82,2,2.82a5.88,5.88,0,0,0,1.53-.18l.12,2a6.47,6.47,0,0,1-2.34.36,3.66,3.66,0,0,1-2.85-1.11c-.75-.78-1-2.07-1-3.78V385h-2.25v-2h2.25v-3.48Z"/><path d="M1302,397.48l-.21-1.83h-.09a5.41,5.41,0,0,1-4.44,2.16,4.14,4.14,0,0,1-4.44-4.17c0-3.51,3.12-5.43,8.73-5.4v-.3c0-1.2-.33-3.36-3.3-3.36a7.23,7.23,0,0,0-3.78,1.08l-.6-1.74a9,9,0,0,1,4.77-1.29c4.44,0,5.52,3,5.52,5.94V394a20.37,20.37,0,0,0,.24,3.48Zm-.39-7.41c-2.88-.06-6.15.45-6.15,3.27a2.34,2.34,0,0,0,2.49,2.52,3.61,3.61,0,0,0,3.51-2.43,2.77,2.77,0,0,0,.15-.84Z"/><path d="M1311,389.62h.06c.36-.51.87-1.14,1.29-1.65l4.26-5h3.18l-5.61,6,6.39,8.55h-3.21l-5-7L1311,392v5.46h-2.61v-21.3H1311Z"/><path d="M1324,390.7c.06,3.57,2.34,5,5,5a9.54,9.54,0,0,0,4-.75l.45,1.89a11.76,11.76,0,0,1-4.83.9c-4.47,0-7.14-2.94-7.14-7.32s2.58-7.83,6.81-7.83c4.74,0,6,4.17,6,6.84a9.91,9.91,0,0,1-.09,1.23Zm7.74-1.89c0-1.68-.69-4.29-3.66-4.29-2.67,0-3.84,2.46-4,4.29Z"/><path d="M1357,390.1c0,5.37-3.72,7.71-7.23,7.71-3.93,0-7-2.88-7-7.47,0-4.86,3.18-7.71,7.2-7.71S1357,385.66,1357,390.1Zm-11.52.15c0,3.18,1.83,5.58,4.41,5.58s4.41-2.37,4.41-5.64c0-2.46-1.23-5.58-4.35-5.58S1345.5,387.49,1345.5,390.25Z"/><path d="M1360.62,397.48V385h-2v-2h2v-.69a6.85,6.85,0,0,1,1.68-5.07,5.05,5.05,0,0,1,3.54-1.35,6.12,6.12,0,0,1,2.25.42l-.36,2A4,4,0,0,0,1366,378c-2.25,0-2.82,2-2.82,4.2V383h3.51v2h-3.51v12.51Z"/><path d="M1378.65,378.79V383h3.78v2h-3.78v7.83c0,1.8.51,2.82,2,2.82a5.88,5.88,0,0,0,1.53-.18l.12,2a6.47,6.47,0,0,1-2.34.36,3.66,3.66,0,0,1-2.85-1.11c-.75-.78-1-2.07-1-3.78V385h-2.25v-2h2.25v-3.48Z"/><path d="M1385.4,376.18H1388v9.06h.06a4.9,4.9,0,0,1,1.89-1.86,5.44,5.44,0,0,1,2.7-.75c2,0,5.07,1.2,5.07,6.21v8.64h-2.64v-8.34c0-2.34-.87-4.32-3.36-4.32a3.79,3.79,0,0,0-3.54,2.64,3.19,3.19,0,0,0-.18,1.26v8.76h-2.64Z"/><path d="M1403.52,390.7c.06,3.57,2.34,5,5,5a9.54,9.54,0,0,0,4-.75l.45,1.89a11.76,11.76,0,0,1-4.83.9c-4.47,0-7.14-2.94-7.14-7.32s2.58-7.83,6.81-7.83c4.74,0,6,4.17,6,6.84a9.91,9.91,0,0,1-.09,1.23Zm7.74-1.89c0-1.68-.69-4.29-3.66-4.29-2.67,0-3.84,2.46-4,4.29Z"/><path d="M1423.43,387.49c0-1.71,0-3.18-.12-4.53h2.31l.09,2.85h.12a4.36,4.36,0,0,1,4-3.18,2.85,2.85,0,0,1,.75.09v2.49a4,4,0,0,0-.9-.09c-1.86,0-3.18,1.41-3.54,3.39a7.37,7.37,0,0,0-.12,1.23v7.74h-2.61Z"/><path d="M1434.41,390.7c.06,3.57,2.34,5,5,5a9.54,9.54,0,0,0,4-.75l.45,1.89a11.76,11.76,0,0,1-4.83.9c-4.47,0-7.14-2.94-7.14-7.32s2.58-7.83,6.81-7.83c4.74,0,6,4.17,6,6.84a9.91,9.91,0,0,1-.09,1.23Zm7.74-1.89c0-1.68-.69-4.29-3.66-4.29-2.67,0-3.84,2.46-4,4.29Z"/><path d="M1447.61,394.78a6.91,6.91,0,0,0,3.48,1c1.92,0,2.82-1,2.82-2.16s-.75-2-2.7-2.67c-2.61-.93-3.84-2.37-3.84-4.11,0-2.34,1.89-4.26,5-4.26a7.25,7.25,0,0,1,3.57.9l-.66,1.92a5.65,5.65,0,0,0-3-.84c-1.56,0-2.43.9-2.43,2s.87,1.74,2.76,2.46c2.52,1,3.81,2.22,3.81,4.38,0,2.55-2,4.35-5.43,4.35a8.27,8.27,0,0,1-4.08-1Z"/><path d="M1463,378.79V383h3.78v2H1463v7.83c0,1.8.51,2.82,2,2.82a5.88,5.88,0,0,0,1.53-.18l.12,2a6.47,6.47,0,0,1-2.34.36,3.66,3.66,0,0,1-2.85-1.11c-.75-.78-1-2.07-1-3.78V385h-2.25v-2h2.25v-3.48Z"/><path d="M1469.27,395.95a1.76,1.76,0,0,1,1.77-1.86,1.86,1.86,0,0,1,0,3.72A1.76,1.76,0,0,1,1469.27,395.95Zm.75-4.29-.42-14.4h2.88l-.42,14.4Z"/></svg>