<svg xmlns="http://www.w3.org/2000/svg" viewBox="0 0 423 333"><defs><style>.cls-1{stroke:#b3b3b3;}.cls-1,.cls-18,.cls-19,.cls-20,.cls-21,.cls-22,.cls-23,.cls-24,.cls-25,.cls-26,.cls-27,.cls-30,.cls-37,.cls-40,.cls-44,.cls-45,.cls-46,.cls-48,.cls-62,.cls-63,.cls-64,.cls-71,.cls-72{stroke-miterlimit:10;}.cls-1,.cls-22,.cls-71,.cls-72{stroke-width:2px;}.cls-2{fill:#b3b3b3;}.cls-3,.cls-70{fill:#f2f2f2;}.cls-4{font-size:12px;}.cls-16,.cls-28,.cls-35,.cls-4,.cls-5{font-family:MyriadPro-Regular, Myriad Pro;}.cls-5{font-size:8px;fill:#666;}.cls-6{letter-spacing:-0.01em;}.cls-7{letter-spacing:-0.04em;}.cls-8{letter-spacing:-0.01em;}.cls-9{letter-spacing:-0.01em;}.cls-10{letter-spacing:-0.02em;}.cls-11{letter-spacing:0em;}.cls-12{letter-spacing:-0.01em;}.cls-13{letter-spacing:0em;}.cls-14{letter-spacing:0em;}.cls-15{letter-spacing:0.01em;}.cls-16,.cls-35{font-size:13px;}.cls-17{letter-spacing:-0.01em;}.cls-18,.cls-32{fill:#eaeaea;}.cls-18,.cls-19,.cls-20,.cls-21,.cls-22,.cls-23,.cls-24,.cls-25,.cls-26,.cls-27,.cls-30,.cls-64{stroke:#000;}.cls-19,.cls-20,.cls-22,.cls-37,.cls-40,.cls-62,.cls-63,.cls-71{fill:none;}.cls-19{stroke-width:4px;}.cls-21{fill:#567a8f;}.cls-23{fill:#3d46a2;}.cls-24,.cls-35,.cls-44,.cls-47,.cls-48,.cls-50,.cls-51,.cls-53,.cls-54,.cls-68,.cls-69{fill:#fff;}.cls-25{fill:#fcbc4b;}.cls-26{fill:#ff2600;}.cls-27{fill:#bfbfbf;}.cls-28{font-size:6.76px;}.cls-29{fill:#f18e8f;}.cls-31{fill:#a28a6d;}.cls-33{fill:#315942;}.cls-34{fill:#99e1ff;}.cls-36{fill:#282f45;}.cls-37{stroke:#ff0;}.cls-38{font-size:18.71px;fill:#ff0;font-family:AmericanTypewriter, American Typewriter;}.cls-39,.cls-41,.cls-42{fill:#a8a800;}.cls-40{stroke:#474700;}.cls-41{font-size:10.69px;}.cls-41,.cls-42{font-family:Silom, Silom;}.cls-42{font-size:7.66px;}.cls-43{fill:#ccc;}.cls-44{stroke:gray;}.cls-45{fill:gray;}.cls-45,.cls-46,.cls-48{stroke:#fff;}.cls-46{fill:#003;}.cls-49,.cls-50,.cls-51,.cls-53,.cls-54,.cls-60,.cls-61,.cls-65,.cls-66,.cls-67,.cls-68,.cls-69,.cls-70,.cls-73{isolation:isolate;}.cls-50,.cls-51{font-size:7.62px;}.cls-50,.cls-51,.cls-66,.cls-67,.cls-68,.cls-69,.cls-70{font-family:Arial-BoldMT, Arial;font-weight:700;}.cls-51{letter-spacing:-0.04em;}.cls-52{fill:#3e3d4d;}.cls-53,.cls-68,.cls-69,.cls-70{font-size:9.89px;}.cls-53,.cls-54,.cls-60,.cls-61,.cls-65,.cls-73{font-family:ArialMT, Arial;}.cls-54,.cls-60,.cls-61,.cls-66,.cls-67,.cls-73{font-size:6.6px;}.cls-55{fill:blue;}.cls-56{fill:lime;}.cls-57{fill:#ed1c24;}.cls-58{fill:#754c24;}.cls-59{fill:#00a99d;}.cls-60,.cls-61{fill:#0071bc;}.cls-60{letter-spacing:-0.13em;}.cls-62{stroke:#fcee21;}.cls-62,.cls-63{stroke-width:3px;}.cls-63{stroke:#ed1c24;}.cls-64{fill:#fbb03b;}.cls-65{font-size:13.09px;}.cls-66{letter-spacing:-0.04em;}.cls-67{letter-spacing:-0.04em;}.cls-69{letter-spacing:-0.08em;}.cls-71{stroke:#ccc;}.cls-72,.cls-73{fill:#e6e6e6;}.cls-72{stroke:#e6e6e6;}</style></defs><title>splash</title><g id="Layer_3" data-name="Layer 3"><rect class="cls-1" x="6.5" y="47.5" width="327" height="226" rx="20.9" ry="20.9"/><path class="cls-2" d="M6.5,279.5h327a0,0,0,0,1,0,0v3a13,13,0,0,1-13,13h-301a13,13,0,0,1-13-13v-3A0,0,0,0,1,6.5,279.5Z"/><rect class="cls-3" x="23" y="63" width="293" height="193"/><text class="cls-4" transform="translate(28.51 76)">Spend!</text><text class="cls-5" transform="translate(75.52 75.99)">H<tspan class="cls-6" x="5.22" y="0">o</tspan><tspan x="9.55" y="0">w &amp;</tspan><tspan class="cls-7" x="21.98" y="0"> </tspan><tspan class="cls-8" x="23.38" y="0">W</tspan><tspan class="cls-9" x="30.11" y="0">h</tspan><tspan x="34.45" y="0" xml:space="preserve">y   </tspan><tspan class="cls-10" x="43.3" y="0">P</tspan><tspan class="cls-11" x="47.43" y="0">r</tspan><tspan x="50.08" y="0" xml:space="preserve">icing  Help  </tspan><tspan class="cls-12" x="88.77" y="0">C</tspan><tspan class="cls-13" x="93.32" y="0">o</tspan><tspan class="cls-14" x="97.71" y="0">n</tspan><tspan x="102.12" y="0">ta</tspan><tspan class="cls-15" x="108.62" y="0">c</tspan><tspan x="112.31" y="0">t</tspan></text><text class="cls-16" transform="translate(38.29 102.43)">Shopping made fun and simpl<tspan class="cls-17" x="163.54" y="0">e</tspan><tspan x="169.89" y="0">.</tspan></text><rect class="cls-18" x="87.82" y="125.91" width="57.76" height="69.92" transform="translate(83.35 -35.05) rotate(26.3)"/><polyline class="cls-19" points="88.15 162.58 92.85 166.22 99.74 168.31 103.91 171.69 109.12 172.95 112.99 176.18 118.06 177.36 121.01 180.14 126.23 181.4 129.04 184.11 132.51 184.51"/><polyline class="cls-19" points="86.43 166.07 91.13 169.71 98.02 171.79 102.19 175.17 107.4 176.43 111.27 179.66 116.33 180.84 119.29 183.63 124.51 184.88 127.32 187.59 130.79 187.99"/><polyline class="cls-19" points="84.71 169.55 89.41 173.19 96.29 175.27 100.46 178.65 105.68 179.91 109.55 183.14 114.61 184.33 117.57 187.11 122.79 188.37 125.6 191.07 129.07 191.47"/><polyline class="cls-19" points="82.99 173.03 87.69 176.67 94.57 178.75 98.74 182.13 103.96 183.39 107.83 186.62 112.89 187.81 115.85 190.59 121.07 191.85 123.88 194.56 127.35 194.95"/><polyline class="cls-20" points="109.82 126.76 99.12 148.41 137.57 167.42"/><rect class="cls-21" x="105.19" y="130.36" width="3.72" height="20.77" transform="translate(73.44 -32.86) rotate(26.3)"/><rect class="cls-21" x="108.39" y="140.51" width="3.72" height="12.67" transform="translate(76.48 -33.65) rotate(26.3)"/><rect class="cls-21" x="111.7" y="150.19" width="3.72" height="5.07" transform="translate(79.42 -34.51) rotate(26.3)"/><rect class="cls-21" x="117.82" y="147.86" width="3.72" height="10.13" transform="translate(80.14 -37.2) rotate(26.3)"/><rect class="cls-21" x="125.18" y="140.24" width="3.72" height="20.77" transform="translate(79.89 -40.69) rotate(26.3)"/><rect class="cls-21" x="128.49" y="149.91" width="3.72" height="13.17" transform="translate(82.83 -41.55) rotate(26.3)"/><rect class="cls-18" x="78.97" y="120.27" width="57.76" height="69.92" transform="translate(66.16 -29.13) rotate(22.05)"/><polyline class="cls-22" points="79.51 159.06 84.47 162.34 91.49 163.91 95.9 166.97 101.19 167.84 105.29 170.77 110.43 171.58 113.58 174.13 118.88 175 121.88 177.49 125.38 177.63"/><polyline class="cls-22" points="77.6 165.26 82.55 168.54 89.57 170.11 93.98 173.17 99.28 174.04 103.37 176.97 108.51 177.78 111.67 180.33 116.96 181.2 119.96 183.69 123.46 183.83"/><polyline class="cls-22" points="74.14 170.86 79.09 174.14 86.11 175.71 90.52 178.77 95.82 179.64 99.91 182.57 105.05 183.38 108.21 185.93 113.5 186.8 116.5 189.29 120 189.43"/><polyline class="cls-20" points="98.46 121.72 89.39 144.11 129.15 160.21"/><rect class="cls-21" x="94.88" y="125.49" width="3.72" height="20.77" transform="translate(58.08 -26.38) rotate(22.05)"/><rect class="cls-21" x="98.52" y="135.39" width="3.72" height="12.67" transform="translate(60.54 -27.32) rotate(22.05)"/><rect class="cls-21" x="102.26" y="144.81" width="3.72" height="5.07" transform="translate(62.93 -28.31) rotate(22.05)"/><rect class="cls-21" x="108.38" y="142.02" width="3.72" height="10.13" transform="translate(63.28 -30.62) rotate(22.05)"/><rect class="cls-21" x="115.54" y="133.86" width="3.72" height="20.77" transform="translate(62.74 -33.52) rotate(22.05)"/><rect class="cls-21" x="119.28" y="143.27" width="3.72" height="13.17" transform="translate(65.12 -34.51) rotate(22.05)"/><rect class="cls-23" x="61.14" y="136.69" width="27.87" height="37.15"/><rect class="cls-24" x="62.99" y="147.33" width="4.9" height="4.9"/><rect class="cls-24" x="69.41" y="147.33" width="4.9" height="4.9"/><rect class="cls-25" x="75.83" y="147.33" width="4.9" height="4.9"/><rect class="cls-26" x="82.25" y="147.33" width="4.9" height="4.9"/><rect class="cls-24" x="62.99" y="153.92" width="4.9" height="4.9"/><rect class="cls-24" x="69.41" y="153.92" width="4.9" height="4.9"/><rect class="cls-24" x="75.83" y="153.92" width="4.9" height="4.9"/><rect class="cls-24" x="82.25" y="153.92" width="4.9" height="4.9"/><rect class="cls-24" x="62.99" y="160.5" width="4.9" height="4.9"/><rect class="cls-24" x="69.41" y="160.5" width="4.9" height="4.9"/><rect class="cls-24" x="75.83" y="160.5" width="4.9" height="4.9"/><rect class="cls-24" x="82.25" y="160.5" width="4.9" height="4.9"/><rect class="cls-24" x="62.99" y="167.09" width="4.9" height="4.9"/><rect class="cls-24" x="69.41" y="167.09" width="4.9" height="4.9"/><rect class="cls-24" x="75.83" y="167.09" width="4.9" height="4.9"/><rect class="cls-24" x="82.25" y="167.09" width="4.9" height="4.9"/><rect class="cls-27" x="62.99" y="139.05" width="24.15" height="6.59"/><text class="cls-28" transform="translate(82.33 144.37)">0</text><ellipse class="cls-29" cx="155.48" cy="166.25" rx="4.2" ry="3.04"/><rect class="cls-25" x="120.46" y="163.2" width="34.98" height="1.54"/><rect class="cls-30" x="120.46" y="164.75" width="34.98" height="1.54"/><rect class="cls-25" x="120.46" y="166.29" width="34.98" height="1.54"/><rect class="cls-30" x="120.46" y="167.83" width="34.98" height="1.54"/><polygon class="cls-25" points="120.46 163.2 120.46 169.37 110.45 166.29 120.46 163.2"/><polygon class="cls-30" points="114.07 165.17 114.07 167.4 110.45 166.29 114.07 165.17"/><path class="cls-31" d="M66.55,186.14l9.93,1.95.58-3.12c-.24.92,6.3-5.18,6.82-7.79.42-2.14.81-4.28,1-5.45.19-1.36-2-2.08-2.53-1.56a21,21,0,0,0-1.17,3.89l-1.56,2.53,4.28-15.77s-.19-2.73-3.12-1.17L77.65,170s-.78.39-.78-.39S79.6,157.9,79.6,157.9s-.58-2.34-3.12-1l-2.73,11.3s-.39.58-.58-.19l1.56-9.93a2.16,2.16,0,0,0-3.31-.78L69.47,169s-.39.39-.78-.19l.19-4.09.76-3.68c.41-1.12-2.56-1.58-2.9-.61l-1.17,4.67v8a31.69,31.69,0,0,0-.19,4.67c.19.78.58,4.09,1.75,4.67Z"/><path class="cls-32" d="M67,160.53s1.75-.54,2.34.43L69,162.52s-1.75.15-2.34-.43Z"/><path class="cls-32" d="M71.81,157.44a1.93,1.93,0,0,1,2.49.65L74,159.85s-1.91,0-2.5-.56Z"/><path class="cls-32" d="M76.9,157.26a1.66,1.66,0,0,1,2.3.6l-.5,1.73a5.2,5.2,0,0,1-2.31-.52Z"/><path class="cls-32" d="M81.12,160.07a1.71,1.71,0,0,1,2.33.61L83,162.41s-1.79.05-2.37-.53Z"/><path class="cls-32" d="M82.71,170.88a1.41,1.41,0,0,1,2.16.43l-.32,1.91c-.07.08-1.77,0-2.15-.84Z"/><rect class="cls-33" x="56.92" y="189.05" width="17.14" height="50.63" transform="translate(47.28 -9.04) rotate(12.33)"/><rect class="cls-34" x="65" y="186.49" width="12.46" height="3.18" transform="translate(41.8 -10.87) rotate(12.33)"/><path class="cls-31" d="M148.3,189.34l-9.71,1.9-.57-3c.23.9-6.16-5.06-6.66-7.62-.41-2.09-.79-4.18-1-5.33-.19-1.33,2-2,2.48-1.52a20.52,20.52,0,0,1,1.14,3.81l1.52,2.48-4.19-15.42s.19-2.67,3-1.14l3,10.09s.76.38.76-.38-2.67-11.42-2.67-11.42.57-2.28,3-1l2.67,11s.38.57.57-.19l-1.52-9.71a2.11,2.11,0,0,1,3.24-.76l1.9,11.42s.38.38.76-.19l-.19-4-.75-3.6c-.4-1.1,2.5-1.55,2.84-.59l1.14,4.57v7.81a31,31,0,0,1,.19,4.57c-.19.76-.57,4-1.71,4.57Z"/><path class="cls-32" d="M147.83,164.3s-1.71-.53-2.28.42l.38,1.52s1.71.15,2.28-.42Z"/><path class="cls-32" d="M143.16,161.28a1.89,1.89,0,0,0-2.43.63l.31,1.73s1.87,0,2.44-.55Z"/><path class="cls-32" d="M138.18,161.11a1.63,1.63,0,0,0-2.25.58l.49,1.69a5.08,5.08,0,0,0,2.26-.51Z"/><path class="cls-32" d="M134.05,163.85a1.67,1.67,0,0,0-2.28.59l.48,1.7s1.75.05,2.32-.52Z"/><path class="cls-32" d="M132.51,174.42a1.38,1.38,0,0,0-2.12.42l.32,1.87c.07.07,1.73,0,2.1-.82Z"/><rect class="cls-33" x="140.15" y="192.36" width="16.76" height="49.51" transform="translate(-38.17 31.8) rotate(-10.84)"/><rect class="cls-34" x="137.49" y="189.72" width="12.19" height="3.11" transform="translate(-33.4 30.41) rotate(-10.84)"/><rect class="cls-33" x="188" y="133" width="50" height="19" rx="8.09" ry="8.09"/><text class="cls-35" transform="translate(199.68 147.19)">JOIN</text></g><g id="Layer_2" data-name="Layer 2"><rect id="card" class="cls-36" x="106.46" y="184" width="215.09" height="125.47" rx="6.31" ry="6.31"/><circle class="cls-37" cx="137.02" cy="208.69" r="17.31"/><circle class="cls-37" cx="137.02" cy="208.69" r="12.73"/><text class="cls-38" transform="translate(131.24 214.92)">S</text><rect class="cls-39" x="119.71" y="235.37" width="29.03" height="26.17" rx="9.95" ry="9.95"/><rect class="cls-40" x="129.05" y="239.97" width="10.36" height="16.96"/><rect class="cls-40" x="129.05" y="237.03" width="10.36" height="22.83" transform="translate(-114.22 382.67) rotate(-90)"/><text class="cls-41" transform="translate(122.93 275.18)"><tspan xml:space="preserve">4520    1900    3731    0053</tspan></text><text class="cls-42" transform="translate(135.06 292.19)">02/12</text><text class="cls-42" transform="translate(181.16 292.19)">02/20</text></g><g id="Layer_1" data-name="Layer 1"><rect class="cls-43" x="411.88" y="70.72" width="4.12" height="29.68"/><rect class="cls-43" x="244.5" y="68.25" width="4.12" height="28.86"/><rect class="cls-43" x="244.5" y="106.18" width="4.12" height="28.86"/><rect id="body" class="cls-44" x="247.8" y="8.06" width="164.9" height="317.44" rx="26.92" ry="26.92"/><circle id="buttom" class="cls-44" cx="330.25" cy="298.29" r="14.84"/><rect class="cls-45" x="318.64" y="18" width="33.73" height="5.33" rx="2.66" ry="2.66"/><circle class="cls-45" cx="311.2" cy="20.63" r="3.07"/><rect id="screen" class="cls-46" x="257.69" y="32.8" width="145.12" height="239.11"/><rect class="cls-47" x="382.19" y="37.74" width="12.69" height="5.36"/><rect class="cls-48" x="393.74" y="39.8" width="3.3" height="1.24"/><g class="cls-49"><text class="cls-50" transform="translate(319.94 42.85)">1:23</text><text class="cls-51" transform="translate(335.19 42.85)"> </text><text class="cls-50" transform="translate(337.03 42.85)">AM</text></g><rect class="cls-52" x="331.49" y="48.05" width="70.91" height="29.68"/><rect class="cls-52" x="258.1" y="47.22" width="70.91" height="29.68"/><rect class="cls-52" x="258.1" y="91.75" width="144.29" height="29.68"/><rect class="cls-52" x="258.1" y="123.08" width="144.29" height="29.68"/><rect class="cls-52" x="258.1" y="154.41" width="144.29" height="29.68"/><rect class="cls-52" x="258.1" y="185.74" width="144.29" height="29.68"/><rect class="cls-52" x="258.1" y="236.04" width="144.29" height="35.87"/><text class="cls-53" transform="translate(366.04 109.23)">15.79</text><text class="cls-53" transform="translate(366.04 140.56)">35.00</text><text class="cls-53" transform="translate(366.04 171.89)">12.65</text><text class="cls-53" transform="translate(366.04 203.22)">69.83</text><text class="cls-53" transform="translate(278.43 65.53)">133.27</text><text class="cls-54" transform="translate(357.04 73.29)">Report</text><circle class="cls-55" cx="361.71" cy="58.77" r="4.67"/><circle class="cls-56" cx="366.04" cy="58.77" r="4.67"/><circle class="cls-57" cx="370.71" cy="58.77" r="4.67"/><rect class="cls-3" x="264.68" y="99" width="15.19" height="15.19" rx="3.35" ry="3.35"/><rect class="cls-43" x="264.68" y="130.33" width="15.19" height="15.19" rx="3.35" ry="3.35"/><rect class="cls-58" x="264.68" y="161.66" width="15.19" height="15.19" rx="3.35" ry="3.35"/><rect class="cls-59" x="264.68" y="192.99" width="15.19" height="15.19" rx="3.35" ry="3.35"/><g class="cls-49"><text class="cls-60" transform="translate(308.54 87.49)">T</text><text class="cls-61" transform="translate(311.84 87.49)">oday 08/08/20</text></g><g class="cls-49"><text class="cls-60" transform="translate(308.54 228.65)">T</text><text class="cls-61" transform="translate(311.84 228.65)">oday 07/08/20</text></g><line class="cls-62" x1="331.49" y1="76.62" x2="402.4" y2="76.62"/><line class="cls-63" x1="258.1" y1="76.62" x2="329.01" y2="76.62"/><polygon class="cls-64" points="269.19 142.34 269.72 138.81 267.11 136.37 270.64 135.78 272.15 132.54 273.8 135.71 277.35 136.15 274.84 138.7 275.53 142.21 272.33 140.61 269.19 142.34"/><text class="cls-65" transform="translate(268.76 173.71)">+</text><g class="cls-49"><text class="cls-66" transform="translate(267.78 203.22)">R</text><text class="cls-67" transform="translate(272.29 203.22)">Y</text></g><g class="cls-49"><text class="cls-68" transform="translate(290.26 140.3)"><tspan xml:space="preserve">Must  Have</tspan></text></g><text class="cls-68" transform="translate(290.26 171.64)">Browns</text><g class="cls-49"><text class="cls-69" transform="translate(290.28 202.97)">Y</text><text class="cls-68" transform="translate(296.33 202.97)">adav</text></g><text class="cls-70" transform="translate(290.26 108.97)">Morgans</text><rect class="cls-71" x="264.68" y="241.96" width="22.18" height="13.77" rx="4.71" ry="4.71"/><line class="cls-71" x1="264.68" y1="247.29" x2="287.4" y2="247.29"/><ellipse class="cls-72" cx="329.01" cy="246.59" rx="7.17" ry="4.63"/><polygon class="cls-72" points="326.24 249.3 321.85 253.17 330.7 249.97 326.24 249.3"/><text class="cls-73" transform="translate(319.94 266.35)">chat</text><text class="cls-73" transform="translate(264.68 266.35)">charges</text><rect class="cls-43" x="376.34" y="241.96" width="2.65" height="2.65"/><rect class="cls-43" x="376.34" y="256.39" width="2.65" height="2.65"/><rect class="cls-43" x="369.12" y="249.17" width="2.65" height="2.65"/><rect class="cls-43" x="383.55" y="249.17" width="2.65" height="2.65"/><rect class="cls-43" x="371.23" y="244.07" width="2.65" height="2.65" transform="translate(-64.4 335.31) rotate(-45)"/><rect class="cls-43" x="381.43" y="254.28" width="2.65" height="2.65" transform="translate(-68.63 345.51) rotate(-45)"/><rect class="cls-43" x="371.23" y="254.28" width="2.65" height="2.65" transform="translate(-71.62 338.3) rotate(-45)"/><rect class="cls-43" x="381.43" y="244.08" width="2.65" height="2.65" transform="translate(-61.42 342.53) rotate(-45)"/><circle class="cls-71" cx="377.66" cy="250.46" r="6.12"/><text class="cls-73" transform="translate(366.94 266.35)">settings</text></g></svg>