<svg id="Layer_1" data-name="Layer 1" xmlns="http://www.w3.org/2000/svg" viewBox="0 0 223 400"><defs><style>.cls-1{fill:#ccc;}.cls-11,.cls-12,.cls-2,.cls-27,.cls-5,.cls-6,.cls-7{fill:#fff;}.cls-2{stroke:gray;}.cls-2,.cls-21,.cls-22,.cls-23,.cls-3,.cls-30,.cls-31,.cls-4,.cls-6{stroke-miterlimit:10;}.cls-3{fill:gray;}.cls-3,.cls-4,.cls-6{stroke:#fff;}.cls-4{fill:#003;}.cls-7{font-size:9.24px;}.cls-25,.cls-27,.cls-29,.cls-7{font-family:Arial-BoldMT, Arial;font-weight:700;}.cls-8{letter-spacing:-0.04em;}.cls-9{letter-spacing:0em;}.cls-10{fill:#3e3d4d;}.cls-11,.cls-27,.cls-29{font-size:12px;}.cls-11,.cls-12,.cls-19,.cls-24,.cls-32{font-family:ArialMT, Arial;}.cls-12,.cls-19,.cls-25,.cls-32{font-size:8px;}.cls-13{fill:blue;}.cls-14{fill:lime;}.cls-15{fill:#ed1c24;}.cls-16,.cls-29{fill:#f2f2f2;}.cls-17{fill:#754c24;}.cls-18{fill:#00a99d;}.cls-19{fill:#0071bc;}.cls-20{letter-spacing:-0.11em;}.cls-21,.cls-22,.cls-30{fill:none;}.cls-21{stroke:#fcee21;}.cls-21,.cls-22{stroke-width:3px;}.cls-22{stroke:#ed1c24;}.cls-23{fill:#fbb03b;stroke:#000;}.cls-24{font-size:15.88px;}.cls-25{letter-spacing:-0.04em;}.cls-26{letter-spacing:-0.02em;}.cls-28{letter-spacing:-0.06em;}.cls-30{stroke:#ccc;}.cls-30,.cls-31{stroke-width:2px;}.cls-31,.cls-32{fill:#e6e6e6;}.cls-31{stroke:#e6e6e6;}</style></defs><title>mobile-1</title><rect class="cls-1" x="212.5" y="83.5" width="5" height="36"/><rect class="cls-1" x="9.5" y="80.5" width="5" height="35"/><rect class="cls-1" x="9.5" y="126.5" width="5" height="35"/><rect id="body" class="cls-2" x="13.5" y="7.5" width="200" height="385" rx="32.65" ry="32.65"/><circle id="buttom" class="cls-2" cx="113.5" cy="359.5" r="18"/><rect class="cls-3" x="99.42" y="19.56" width="40.91" height="6.47" rx="3.23" ry="3.23"/><circle class="cls-3" cx="90.39" cy="22.75" r="3.72"/><rect id="screen" class="cls-4" x="25.5" y="37.5" width="176" height="290"/><rect class="cls-5" x="176.5" y="43.5" width="15.39" height="6.5"/><rect class="cls-6" x="190.5" y="46" width="4" height="1.5"/><text class="cls-7" transform="translate(101 49.69)">1:23<tspan class="cls-8" x="18.49" y="0"> </tspan><tspan class="cls-9" x="20.72" y="0">AM</tspan></text><rect class="cls-10" x="115" y="56" width="86" height="36"/><rect class="cls-10" x="26" y="55" width="86" height="36"/><rect class="cls-10" x="26" y="109" width="175" height="36"/><rect class="cls-10" x="26" y="147" width="175" height="36"/><rect class="cls-10" x="26" y="185" width="175" height="36"/><rect class="cls-10" x="26" y="223" width="175" height="36"/><rect class="cls-10" x="26" y="284" width="175" height="43.5"/><text class="cls-11" transform="translate(156.91 130.2)">15.79</text><text class="cls-11" transform="translate(156.91 168.2)">35.00</text><text class="cls-11" transform="translate(156.91 206.2)">12.65</text><text class="cls-11" transform="translate(156.91 244.2)">69.83</text><text class="cls-11" transform="translate(50.65 77.2)">133.27</text><text class="cls-12" transform="translate(145.99 86.61)">Report</text><circle class="cls-13" cx="151.65" cy="69" r="5.66"/><circle class="cls-14" cx="156.91" cy="69" r="5.66"/><circle class="cls-15" cx="162.57" cy="69" r="5.66"/><rect class="cls-16" x="33.97" y="117.79" width="18.42" height="18.42" rx="4.06" ry="4.06"/><rect class="cls-1" x="33.97" y="155.79" width="18.42" height="18.42" rx="4.06" ry="4.06"/><rect class="cls-17" x="33.97" y="193.79" width="18.42" height="18.42" rx="4.06" ry="4.06"/><rect class="cls-18" x="33.97" y="231.79" width="18.42" height="18.42" rx="4.06" ry="4.06"/><text class="cls-19" transform="translate(87.17 103.83)"><tspan class="cls-20">T</tspan><tspan x="4" y="0">oday 08/08/20</tspan></text><text class="cls-19" transform="translate(87.17 275.04)"><tspan class="cls-20">T</tspan><tspan x="4" y="0">oday 07/08/20</tspan></text><line class="cls-21" x1="115" y1="90.65" x2="201" y2="90.65"/><line class="cls-22" x1="26" y1="90.65" x2="112" y2="90.65"/><polygon class="cls-23" points="39.45 170.36 40.09 166.08 36.92 163.12 41.2 162.4 43.03 158.47 45.03 162.32 49.34 162.85 46.3 165.94 47.13 170.2 43.25 168.26 39.45 170.36"/><text class="cls-24" transform="translate(38.92 208.4)">+</text><text class="cls-25" transform="translate(37.73 244.19)">R<tspan class="cls-26" x="5.48" y="0">Y</tspan></text><text class="cls-27" transform="translate(65 167.89)"><tspan xml:space="preserve">Must  Have</tspan></text><text class="cls-27" transform="translate(65 205.89)">Browns</text><text class="cls-27" transform="translate(65.02 243.89)"><tspan class="cls-28">Y</tspan><tspan x="7.34" y="0">adav</tspan></text><text class="cls-29" transform="translate(65 129.89)">Morgans</text><rect class="cls-30" x="33.97" y="291.18" width="26.9" height="16.7" rx="5.71" ry="5.71"/><line class="cls-30" x1="33.97" y1="297.65" x2="61.53" y2="297.65"/><ellipse class="cls-31" cx="112" cy="296.8" rx="8.69" ry="5.62"/><polygon class="cls-31" points="108.63 300.08 103.31 304.78 114.05 300.89 108.63 300.08"/><text class="cls-32" transform="translate(101 320.76)">chat</text><text class="cls-32" transform="translate(33.97 320.76)">charges</text><rect class="cls-1" x="169.4" y="291.18" width="3.21" height="3.21"/><rect class="cls-1" x="169.4" y="308.68" width="3.21" height="3.21"/><rect class="cls-1" x="160.65" y="299.93" width="3.21" height="3.21" transform="translate(-139.29 463.79) rotate(-90)"/><rect class="cls-1" x="178.15" y="299.93" width="3.21" height="3.21" transform="translate(-121.79 481.29) rotate(-90)"/><rect class="cls-1" x="163.21" y="293.74" width="3.21" height="3.21" transform="translate(-160.57 203.05) rotate(-45)"/><rect class="cls-1" x="175.58" y="306.12" width="3.21" height="3.21" transform="translate(-165.7 215.42) rotate(-45)"/><rect class="cls-1" x="163.21" y="306.12" width="3.21" height="3.21" transform="translate(63.76 641.86) rotate(-135)"/><rect class="cls-1" x="175.58" y="293.74" width="3.21" height="3.21" transform="translate(93.63 629.48) rotate(-135)"/><circle class="cls-30" cx="171" cy="301.49" r="7.42"/><text class="cls-32" transform="translate(158 320.76)">settings</text></svg>