<svg id="Layer_1" data-name="Layer 1" xmlns="http://www.w3.org/2000/svg" viewBox="0 0 224 405"><defs><style>.cls-1{fill:#ccc;}.cls-2,.cls-5,.cls-6,.cls-7{fill:#fff;}.cls-2{stroke:gray;}.cls-10,.cls-2,.cls-3,.cls-4,.cls-6,.cls-9{stroke-miterlimit:10;}.cls-3{fill:gray;}.cls-3,.cls-4,.cls-6{stroke:#fff;}.cls-4{fill:#003;}.cls-7{font-size:9.24px;font-family:Arial-BoldMT, Arial;font-weight:700;}.cls-8{fill:#3e3d4d;}.cls-9{fill:none;stroke:#ccc;}.cls-10,.cls-9{stroke-width:2px;}.cls-10,.cls-11,.cls-12,.cls-17,.cls-21{fill:#e6e6e6;}.cls-10{stroke:#e6e6e6;}.cls-11,.cls-21{font-size:8px;}.cls-11{font-family:ArialMT, Arial;}.cls-12{font-size:25px;}.cls-12,.cls-17,.cls-18,.cls-21{font-family:MyriadPro-Regular, Myriad Pro;}.cls-13{letter-spacing:-0.08em;}.cls-14{letter-spacing:0em;}.cls-15{fill:#999;}.cls-16{fill:#2e495c;}.cls-17,.cls-18{font-size:10px;}.cls-19{letter-spacing:0em;}.cls-20{letter-spacing:-0.01em;}.cls-22{letter-spacing:-0.01em;}.cls-23{letter-spacing:-0.01em;}</style></defs><title>mobile-2</title><rect class="cls-1" x="212.5" y="84.5" width="5" height="36"/><rect class="cls-1" x="9.5" y="81.5" width="5" height="35"/><rect class="cls-1" x="9.5" y="127.5" width="5" height="35"/><rect id="body" class="cls-2" x="13.5" y="8.5" width="200" height="385" rx="32.65" ry="32.65"/><circle id="buttom" class="cls-2" cx="113.5" cy="360.5" r="18"/><rect class="cls-3" x="99.42" y="20.56" width="40.91" height="6.47" rx="3.23" ry="3.23"/><circle class="cls-3" cx="90.39" cy="23.75" r="3.72"/><rect id="screen" class="cls-4" x="25.5" y="38.5" width="176" height="290"/><rect class="cls-5" x="176.5" y="44.5" width="15.39" height="6.5"/><rect class="cls-6" x="190.5" y="47" width="4" height="1.5"/><text class="cls-7" transform="translate(101 50.69)">3:33 PM</text><rect class="cls-8" x="26" y="285" width="175" height="43.5"/><rect class="cls-9" x="33.97" y="292.18" width="26.9" height="16.7" rx="5.71" ry="5.71"/><line class="cls-9" x1="33.97" y1="298.65" x2="61.53" y2="298.65"/><ellipse class="cls-10" cx="112" cy="297.8" rx="8.69" ry="5.62"/><polygon class="cls-10" points="108.63 301.08 103.31 305.78 114.05 301.89 108.63 301.08"/><text class="cls-11" transform="translate(101 321.76)">chat</text><text class="cls-11" transform="translate(33.97 321.76)">charges</text><rect class="cls-1" x="169.4" y="292.18" width="3.21" height="3.21"/><rect class="cls-1" x="169.4" y="309.68" width="3.21" height="3.21"/><rect class="cls-1" x="160.65" y="300.93" width="3.21" height="3.21" transform="translate(-140.29 464.79) rotate(-90)"/><rect class="cls-1" x="178.15" y="300.93" width="3.21" height="3.21" transform="translate(-122.79 482.29) rotate(-90)"/><rect class="cls-1" x="163.21" y="294.74" width="3.21" height="3.21" transform="translate(-161.28 203.34) rotate(-45)"/><rect class="cls-1" x="175.58" y="307.12" width="3.21" height="3.21" transform="translate(-166.4 215.71) rotate(-45)"/><rect class="cls-1" x="163.21" y="307.12" width="3.21" height="3.21" transform="translate(63.05 643.56) rotate(-135)"/><rect class="cls-1" x="175.58" y="294.74" width="3.21" height="3.21" transform="translate(92.93 631.19) rotate(-135)"/><circle class="cls-9" cx="171" cy="302.49" r="7.42"/><text class="cls-11" transform="translate(158 321.76)">settings</text><text class="cls-12" transform="translate(43.07 102.68)">JU<tspan class="cls-13" x="25.42" y="0">L</tspan><tspan class="cls-14" x="35.12" y="0">Y 21, 2017</tspan></text><rect class="cls-15" x="34" y="117" width="161" height="48" rx="9.65" ry="9.65"/><path class="cls-16" d="M195,126.65a9.65,9.65,0,0,0-9.65-9.65H43.65A9.65,9.65,0,0,0,34,126.65v8.64H195Z"/><text class="cls-17" transform="translate(52.19 129.4)">Spend!</text><text class="cls-18" transform="translate(52.19 149.46)">$7.65 pizza <tspan class="cls-19" x="48.24" y="0">a</tspan><tspan x="53.02" y="0">t Bla</tspan><tspan class="cls-20" x="71.05" y="0">z</tspan><tspan x="75.26" y="0">e</tspan></text><text class="cls-21" transform="translate(52.19 158.88)">tap <tspan class="cls-22" x="12.75" y="0">f</tspan><tspan x="14.98" y="0">or mo</tspan><tspan class="cls-23" x="34.75" y="0">r</tspan><tspan x="37.29" y="0">e</tspan></text></svg>