<svg id="Layer_1" data-name="Layer 1" xmlns="http://www.w3.org/2000/svg" viewBox="0 0 649.57 776.45"><defs><style>.cls-1,.cls-14{fill:#eaeaea;}.cls-1,.cls-12,.cls-2,.cls-3,.cls-4,.cls-5,.cls-6,.cls-7,.cls-8,.cls-9{stroke:#000;stroke-miterlimit:10;}.cls-2,.cls-3{fill:none;}.cls-2{stroke-width:4px;}.cls-4{fill:#567a8f;}.cls-5{fill:#3d46a2;}.cls-6{fill:#fff;}.cls-7{fill:#fcbc4b;}.cls-8{fill:#ff2600;}.cls-9{fill:#bfbfbf;}.cls-10{font-size:40px;font-family:MyriadPro-Regular, Myriad Pro;}.cls-11{fill:#f18e8f;}.cls-13{fill:#a28a6d;}.cls-15{fill:#315942;}.cls-16{fill:#99e1ff;}</style></defs><title>accountant-icon</title><rect class="cls-1" x="278.49" y="137.43" width="342" height="414" transform="translate(134.42 -217.83) rotate(26.3)"/><polyline class="cls-2" points="215.77 300.27 243.6 321.83 284.35 334.17 309.04 354.18 339.93 361.64 362.83 380.76 392.83 387.78 410.34 404.25 441.24 411.7 457.86 427.73 478.44 430.09"/><polyline class="cls-2" points="205.58 320.89 233.41 342.45 274.16 354.79 298.85 374.8 329.74 382.26 352.64 401.38 382.64 408.4 400.15 424.86 431.05 432.32 447.67 448.35 468.25 450.71"/><polyline class="cls-2" points="195.39 341.51 223.22 363.07 263.97 375.4 288.66 395.42 319.55 402.88 342.45 422 372.44 429.02 389.96 445.48 420.86 452.94 437.48 468.97 458.06 471.33"/><polyline class="cls-2" points="185.2 362.13 213.03 383.69 253.78 396.02 278.47 416.04 309.36 423.5 332.26 442.62 362.25 449.64 379.77 466.1 410.67 473.56 427.29 489.58 447.87 491.95"/><polyline class="cls-3" points="344.04 88.14 280.68 216.34 508.38 328.88"/><rect class="cls-4" x="381.36" y="163.79" width="22" height="123" transform="translate(75.72 -204.86) rotate(26.3)"/><rect class="cls-4" x="400.31" y="223.93" width="22" height="75" transform="translate(93.69 -209.51) rotate(26.3)"/><rect class="cls-4" x="419.93" y="281.22" width="22" height="30" transform="translate(111.14 -214.6) rotate(26.3)"/><rect class="cls-4" x="456.16" y="267.39" width="22" height="60" transform="translate(115.41 -230.53) rotate(26.3)"/><rect class="cls-4" x="499.7" y="222.27" width="22" height="123" transform="translate(113.88 -251.23) rotate(26.3)"/><rect class="cls-4" x="519.31" y="279.57" width="22" height="78" transform="translate(131.33 -256.32) rotate(26.3)"/><rect class="cls-1" x="226.1" y="104.04" width="342" height="414" transform="translate(81.09 -180.65) rotate(22.05)"/><polyline class="cls-2" points="164.6 279.38 193.95 298.82 235.51 308.1 261.61 326.22 292.97 331.37 317.22 348.75 347.66 353.52 366.35 368.64 397.71 373.79 415.47 388.54 436.17 389.37"/><polyline class="cls-2" points="155.97 300.7 185.31 320.13 226.87 329.41 252.98 347.54 284.34 352.69 308.59 370.06 339.02 374.84 357.71 389.96 389.07 395.11 406.84 409.86 427.54 410.69"/><polyline class="cls-2" points="147.33 322.01 176.68 341.45 218.24 350.73 244.34 368.86 275.7 374.01 299.95 391.38 330.39 396.15 349.08 411.28 380.44 416.43 398.2 431.17 418.9 432"/><polyline class="cls-2" points="138.7 343.33 168.05 362.77 209.6 372.05 235.71 390.18 267.07 395.32 291.32 412.7 321.75 417.47 340.44 432.6 371.81 437.74 389.57 452.49 410.27 453.32"/><polyline class="cls-3" points="276.79 58.33 223.11 190.87 458.53 286.22"/><rect class="cls-4" x="320.3" y="134.96" width="22" height="123" transform="translate(33.26 -164.33) rotate(22.05)"/><rect class="cls-4" x="341.88" y="193.59" width="22" height="75" transform="translate(47.84 -169.9) rotate(22.05)"/><rect class="cls-4" x="364.02" y="249.33" width="22" height="30" transform="translate(61.94 -175.78) rotate(22.05)"/><rect class="cls-4" x="400.23" y="232.82" width="22" height="60" transform="translate(64.02 -189.49) rotate(22.05)"/><rect class="cls-4" x="442.65" y="184.51" width="22" height="123" transform="translate(60.81 -206.64) rotate(22.05)"/><rect class="cls-4" x="464.79" y="240.25" width="22" height="78" transform="translate(74.91 -212.52) rotate(22.05)"/><rect class="cls-5" x="55.78" y="146.95" width="165" height="220"/><rect class="cls-6" x="66.78" y="209.95" width="29" height="29"/><rect class="cls-6" x="104.78" y="209.95" width="29" height="29"/><rect class="cls-7" x="142.78" y="209.95" width="29" height="29"/><rect class="cls-8" x="180.78" y="209.95" width="29" height="29"/><rect class="cls-6" x="66.78" y="248.95" width="29" height="29"/><rect class="cls-6" x="104.78" y="248.95" width="29" height="29"/><rect class="cls-6" x="142.78" y="248.95" width="29" height="29"/><rect class="cls-6" x="180.78" y="248.95" width="29" height="29"/><rect class="cls-6" x="66.78" y="287.95" width="29" height="29"/><rect class="cls-6" x="104.78" y="287.95" width="29" height="29"/><rect class="cls-6" x="142.78" y="287.95" width="29" height="29"/><rect class="cls-6" x="180.78" y="287.95" width="29" height="29"/><rect class="cls-6" x="66.78" y="326.95" width="29" height="29"/><rect class="cls-6" x="104.78" y="326.95" width="29" height="29"/><rect class="cls-6" x="142.78" y="326.95" width="29" height="29"/><rect class="cls-6" x="180.78" y="326.95" width="29" height="29"/><rect class="cls-9" x="66.78" y="160.95" width="143" height="39"/><text class="cls-10" transform="translate(181.28 192.45)">0</text><ellipse class="cls-11" cx="614.42" cy="321.96" rx="24.86" ry="18.02"/><rect class="cls-7" x="407.09" y="303.95" width="207.11" height="9.12"/><rect class="cls-12" x="407.09" y="313.07" width="207.11" height="9.12"/><rect class="cls-7" x="407.09" y="322.19" width="207.11" height="9.12"/><rect class="cls-12" x="407.09" y="331.32" width="207.11" height="9.12"/><polygon class="cls-7" points="407.09 303.94 407.09 340.44 347.78 322.19 407.09 303.94"/><polygon class="cls-12" points="369.22 315.6 369.22 328.79 347.78 322.19 369.22 315.6"/><path class="cls-13" d="M152.57,494.07l58.81,11.53,3.46-18.45c-1.41,5.42,37.33-30.67,40.36-46.13,2.48-12.65,4.77-25.34,5.77-32.29,1.15-8.07-11.88-12.34-15-9.23-2.31,2.31-6.92,23.06-6.92,23.06l-9.23,15,25.37-93.4S254,328,236.75,337.24L218.3,398.36s-4.61,2.31-4.61-2.31,16.14-69.19,16.14-69.19-3.46-13.84-18.45-5.77L195.23,388s-2.31,3.46-3.46-1.15L201,328s-5.77-12.68-19.6-4.61l-11.53,69.19s-2.31,2.31-4.61-1.15l1.15-24.22,4.52-21.78c2.45-6.65-15.17-9.36-17.2-3.58l-6.92,27.68v47.28s-2.31,23.06-1.15,27.68,3.46,24.22,10.38,27.68Z" transform="translate(-64.72 -54.33)"/><path class="cls-14" d="M155.45,342.43s10.38-3.22,13.84,2.55L167,354.2s-10.38.91-13.84-2.55Z" transform="translate(-64.72 -54.33)"/><path class="cls-14" d="M183.73,324.14s9.2-4.64,14.73,3.82l-1.87,10.47s-11.34.14-14.8-3.32Z" transform="translate(-64.72 -54.33)"/><path class="cls-14" d="M213.86,323.09s8.09-4.92,13.62,3.53l-3,10.23s-9.08,0-13.69-3.07Z" transform="translate(-64.72 -54.33)"/><path class="cls-14" d="M238.86,339.71s8.29-4.87,13.81,3.58l-2.92,10.27s-10.58.31-14-3.15Z" transform="translate(-64.72 -54.33)"/><path class="cls-14" d="M248.22,403.71s7.29-5.93,12.82,2.52l-1.92,11.33c-.41.45-10.48-.21-12.72-5Z" transform="translate(-64.72 -54.33)"/><rect class="cls-15" x="95.55" y="511.3" width="101.48" height="299.82" transform="translate(79.83 -70.32) rotate(12.33)"/><rect class="cls-16" x="143.4" y="496.15" width="73.8" height="18.82" transform="translate(47.38 -81.17) rotate(12.33)"/><path class="cls-13" d="M636.66,513.06l-57.5,11.28-3.38-18c1.38,5.3-36.5-30-39.46-45.1-2.42-12.37-4.67-24.78-5.64-31.57-1.13-7.89,11.62-12.06,14.66-9,2.26,2.26,6.77,22.55,6.77,22.55l9,14.66-24.81-91.33s1.13-15.79,18-6.77l18,59.76s4.51,2.26,4.51-2.26-15.79-67.65-15.79-67.65,3.38-13.53,18-5.64l15.79,65.4s2.26,3.38,3.38-1.13l-9-57.5s5.64-12.4,19.17-4.51l11.28,67.65s2.26,2.26,4.51-1.13L623.13,389l-4.42-21.3c-2.39-6.5,14.83-9.15,16.82-3.5l6.77,27.06v46.23s2.26,22.55,1.13,27.06-3.38,23.68-10.15,27.06Z" transform="translate(-64.72 -54.33)"/><path class="cls-14" d="M633.84,364.79s-10.15-3.15-13.53,2.49l2.26,9s10.15.89,13.53-2.49Z" transform="translate(-64.72 -54.33)"/><path class="cls-14" d="M606.19,346.91s-9-4.53-14.4,3.74l1.83,10.24s11.09.14,14.47-3.24Z" transform="translate(-64.72 -54.33)"/><path class="cls-14" d="M576.73,345.88s-7.91-4.81-13.31,3.45l2.92,10s8.88,0,13.39-3Z" transform="translate(-64.72 -54.33)"/><path class="cls-14" d="M552.28,362.13s-8.1-4.76-13.51,3.5l2.85,10s10.34.31,13.73-3.08Z" transform="translate(-64.72 -54.33)"/><path class="cls-14" d="M543.13,424.71s-7.13-5.8-12.53,2.47l1.88,11.08c.41.44,10.25-.2,12.43-4.88Z" transform="translate(-64.72 -54.33)"/><rect class="cls-15" x="588.39" y="530.91" width="99.22" height="293.15" transform="translate(-180.72 77.72) rotate(-10.84)"/><rect class="cls-16" x="572.63" y="515.29" width="72.16" height="18.4" transform="translate(-152.48 69.48) rotate(-10.84)"/></svg>