<svg id="Layer_1" data-name="Layer 1" xmlns="http://www.w3.org/2000/svg" viewBox="0 0 100 100"><defs><style>.cls-1{fill:none;}.cls-1,.cls-2{stroke:#ed1c24;stroke-miterlimit:10;stroke-width:2px;}.cls-2{fill:#fff;}</style></defs><title>icon</title><circle class="cls-1" cx="51.71" cy="32.74" r="10.46"/><path class="cls-1" d="M93.37,78.12a112,112,0,0,1-30.93,0,4.2,4.2,0,0,1-3.55-4.87l3.76-22.12C64,42.81,69.6,35.61,78.17,35.61h0c8.57,0,14,6.08,15.52,15.52l3.25,22.21A4.21,4.21,0,0,1,93.37,78.12Z"/><circle class="cls-1" cx="77.91" cy="23.43" r="10.46"/><path class="cls-1" d="M37.63,78.12a112,112,0,0,1-30.93,0,4.2,4.2,0,0,1-3.55-4.87L6.91,51.13c1.37-8.32,6.95-15.52,15.52-15.52h0c8.57,0,14,6.08,15.52,15.52L41.2,73.34A4.21,4.21,0,0,1,37.63,78.12Z"/><circle class="cls-1" cx="22.17" cy="23.43" r="10.46"/><path class="cls-2" d="M67.17,87.43a112,112,0,0,1-30.93,0,4.2,4.2,0,0,1-3.55-4.87l3.76-22.12C37.81,52.13,43.4,44.92,52,44.92h0c8.57,0,14,6.08,15.52,15.52l3.25,22.21A4.21,4.21,0,0,1,67.17,87.43Z"/></svg>