<svg id="Layer_1" data-name="Layer 1" xmlns="http://www.w3.org/2000/svg" xmlns:xlink="http://www.w3.org/1999/xlink" viewBox="0 0 1516.38 427.48"><defs><style>.cls-1,.cls-16,.cls-17,.cls-18,.cls-19,.cls-4,.cls-7{fill:none;}.cls-2{fill:#036;}.cls-3{fill:#282f45;}.cls-4{stroke:#ff0;}.cls-10,.cls-11,.cls-12,.cls-13,.cls-14,.cls-16,.cls-17,.cls-18,.cls-19,.cls-20,.cls-23,.cls-26,.cls-27,.cls-30,.cls-4,.cls-7{stroke-miterlimit:10;}.cls-5{font-size:15.63px;fill:#ff0;font-family:AmericanTypewriter, American Typewriter;}.cls-6,.cls-8,.cls-9{fill:#a8a800;}.cls-7{stroke:#474700;}.cls-8{font-size:8.93px;}.cls-8,.cls-9{font-family:Silom, Silom;}.cls-9{font-size:6.4px;}.cls-10{fill:#3d46a2;}.cls-10,.cls-11,.cls-12,.cls-13,.cls-14,.cls-20,.cls-23,.cls-30{stroke:#000;}.cls-11,.cls-28{fill:#fff;}.cls-12{fill:#fcbc4b;}.cls-13{fill:#ff2600;}.cls-14{fill:#bfbfbf;}.cls-15{font-size:25.47px;}.cls-15,.cls-31,.cls-33,.cls-46{font-family:MyriadPro-Regular, Myriad Pro;}.cls-16,.cls-17,.cls-18,.cls-19{stroke:#fffa00;stroke-width:20px;}.cls-17{stroke-dasharray:12.96 12.96;}.cls-18{stroke-dasharray:12.81 12.81;}.cls-19{stroke-dasharray:9.92 9.92;}.cls-20{fill:#dcbd9a;}.cls-21{fill:#c4a178;}.cls-22{fill:#433627;}.cls-23{fill:#b0967c;}.cls-24{fill:#7d654a;}.cls-25{clip-path:url(#clip-path);}.cls-26,.cls-27{stroke:#fff;}.cls-27{fill:#003;}.cls-29{clip-path:url(#clip-path-2);}.cls-30{fill:#ffc;}.cls-31{font-size:12px;}.cls-32{clip-path:url(#clip-path-3);}.cls-33,.cls-46{font-size:30px;}.cls-34{letter-spacing:-0.03em;}.cls-35{letter-spacing:-0.01em;}.cls-36{letter-spacing:-0.01em;}.cls-37{letter-spacing:-0.01em;}.cls-38{letter-spacing:0.01em;}.cls-39{letter-spacing:0em;}.cls-40{letter-spacing:0.01em;}.cls-41{letter-spacing:-0.01em;}.cls-42{letter-spacing:-0.01em;}.cls-43{letter-spacing:0em;}.cls-44{letter-spacing:0em;}.cls-45{letter-spacing:0em;}.cls-46{letter-spacing:-0.03em;}</style><clipPath id="clip-path"><circle class="cls-1" cx="567.7" cy="180.52" r="157.07"/></clipPath><clipPath id="clip-path-2"><circle class="cls-1" cx="947.09" cy="182.11" r="157.07"/></clipPath><clipPath id="clip-path-3"><rect id="screen" class="cls-1" x="882.75" y="118.67" width="120" height="197.73"/></clipPath></defs><title>spend-flow</title><circle class="cls-2" cx="188.32" cy="180.52" r="157.07"/><rect id="card" class="cls-3" x="72.08" y="119.46" width="179.63" height="104.78" rx="6.31" ry="6.31" transform="translate(94.72 -54.49) rotate(26.76)"/><circle class="cls-4" cx="118.8" cy="114.54" r="14.46" transform="translate(-36.96 169.04) rotate(-63.24)"/><circle class="cls-4" cx="118.8" cy="114.54" r="10.63" transform="translate(-36.96 169.04) rotate(-63.24)"/><text class="cls-5" transform="translate(112.14 117.01) rotate(26.76)">S</text><rect class="cls-6" x="89.64" y="132.21" width="24.24" height="21.85" rx="9.95" ry="9.95" transform="translate(75.35 -30.49) rotate(26.76)"/><rect class="cls-7" x="97.44" y="136.05" width="8.65" height="14.16" transform="translate(75.35 -30.49) rotate(26.76)"/><rect class="cls-7" x="97.44" y="133.6" width="8.65" height="19.06" transform="translate(-71.86 169.55) rotate(-63.24)"/><text class="cls-8" transform="translate(83.29 158.82) rotate(26.76)"><tspan xml:space="preserve">4520    1900    3731    0053</tspan></text><text class="cls-9" transform="translate(85.94 176.06) rotate(26.76)">02/12</text><text class="cls-9" transform="translate(120.31 193.4) rotate(26.76)">02/20</text><rect class="cls-10" x="181.31" y="95.26" width="105.07" height="140.1"/><rect class="cls-11" x="188.32" y="135.38" width="18.47" height="18.47"/><rect class="cls-11" x="212.51" y="135.38" width="18.47" height="18.47"/><rect class="cls-12" x="236.71" y="135.38" width="18.47" height="18.47"/><rect class="cls-13" x="260.91" y="135.38" width="18.47" height="18.47"/><rect class="cls-11" x="188.32" y="160.22" width="18.47" height="18.47"/><rect class="cls-11" x="212.51" y="160.22" width="18.47" height="18.47"/><rect class="cls-11" x="236.71" y="160.22" width="18.47" height="18.47"/><rect class="cls-11" x="260.91" y="160.22" width="18.47" height="18.47"/><rect class="cls-11" x="188.32" y="185.05" width="18.47" height="18.47"/><rect class="cls-11" x="212.51" y="185.05" width="18.47" height="18.47"/><rect class="cls-11" x="236.71" y="185.05" width="18.47" height="18.47"/><rect class="cls-11" x="260.91" y="185.05" width="18.47" height="18.47"/><rect class="cls-11" x="188.32" y="209.89" width="18.47" height="18.47"/><rect class="cls-11" x="212.51" y="209.89" width="18.47" height="18.47"/><rect class="cls-11" x="236.71" y="209.89" width="18.47" height="18.47"/><rect class="cls-11" x="260.91" y="209.89" width="18.47" height="18.47"/><rect class="cls-14" x="188.32" y="104.18" width="91.06" height="24.84"/><text class="cls-15" transform="translate(261.23 124.24)">0</text><circle class="cls-2" cx="947.09" cy="182.11" r="157.07"/><circle class="cls-2" cx="567.7" cy="180.52" r="157.07"/><circle class="cls-2" cx="1326.48" cy="189.69" r="157.07"/><line class="cls-16" x1="1265.65" y1="243.72" x2="1270.78" y2="240.6"/><line class="cls-17" x1="1281.86" y1="233.88" x2="1320.64" y2="210.35"/><polyline class="cls-16" points="1326.18 206.98 1331.31 203.87 1336.41 207.01"/><line class="cls-18" x1="1347.32" y1="213.73" x2="1385.49" y2="237.22"/><line class="cls-16" x1="1390.95" y1="240.57" x2="1396.06" y2="243.72"/><line class="cls-16" x1="1331.31" y1="203.87" x2="1331.31" y2="197.87"/><line class="cls-19" x1="1331.31" y1="187.95" x2="1331.31" y2="153.25"/><line class="cls-16" x1="1331.31" y1="148.29" x2="1331.31" y2="142.29"/><path class="cls-20" d="M1356.15,256.56s-4.9-35.5-3.39-47.27c1-7.62,6.25-18.5,23.7-22.52s26.3-3.43,34.64-1.05a35.88,35.88,0,0,1,20.57,15.34c1.22,2,4.66,22,2.08,35.25a146.23,146.23,0,0,0-2.86,23.71c-.13,1.68-16.13,37.7-23.44,40.15-6.48,2.17-23.08,2.63-27-1.26s-21.45-28.5-21.45-28.5Z"/><path class="cls-21" d="M1401.35,203.84s7.69,15.59,12.13,15.57c7,0,15.34,12.36,15.34,12.36s-3.05,25.71-1.37,30.67l-.5,6.6,3.76-8.84c.17-10.84,1.62-17.83,3.46-28.44l-9.7-29.29-24-10.53Z"/><path class="cls-22" d="M1409.1,203.35s-7.29,8.7-14.32,10.3l-7,1.6s7.81-5.72,8.07-7.78c0,0-12.24.92-19,7.78s-9.12.92-13,6.64-7.92,18.58-9.45,17.54c-4.16-5-7-31.74,3.22-44.55s60-28.16,75.09,6c2.52,5.7,3.82,19.15,1.85,31.34-4.4-8.13-8.77-14.88-15.89-17.93C1413.56,212.8,1410.57,209,1409.1,203.35Z"/><path class="cls-23" d="M1227.55,256.56s-4.9-35.5-3.39-47.27c1-7.62,6.25-18.5,23.7-22.52s26.3-3.43,34.64-1.05a35.88,35.88,0,0,1,20.57,15.34c1.22,2,4.66,22,2.08,35.25a146.23,146.23,0,0,0-2.86,23.71c-.13,1.68-16.13,37.7-23.44,40.15-6.48,2.17-23.08,2.63-27-1.26s-21.45-28.5-21.45-28.5Z"/><path class="cls-24" d="M1272.75,203.84s7.69,15.59,12.13,15.57c7,0,15.34,12.36,15.34,12.36s-3.05,25.71-1.37,30.67l-.5,6.6,3.76-8.84c.17-10.84,1.62-17.83,3.46-28.44l-9.7-29.29-24-10.53Z"/><path class="cls-22" d="M1280.5,203.35s-7.29,8.7-14.32,10.3l-7,1.6s7.81-5.72,8.07-7.78c0,0-12.24.92-19,7.78s-9.12.92-13,6.64-7.92,18.58-9.45,17.54c-4.16-5-7-31.74,3.22-44.55s60-28.16,75.09,6c2.52,5.7,3.82,19.15,1.85,31.34-4.4-8.13-8.77-14.88-15.89-17.93C1285,212.8,1282,209,1280.5,203.35Z"/><polygon class="cls-22" points="1301.23 164.57 1321.37 162.47 1312.05 112.46 1290.4 113.6 1289.13 155.86 1301.23 164.57"/><path class="cls-20" d="M1297.19,116.19s1.7,13.78,3.61,17.39,14,24,22.5,30.56S1343.9,162,1343.9,162s14-11.75,15.5-15.85,10.83-23.71,10.61-42.53-15.07-36.3-15.07-36.3-29.08-18.47-46.49,0S1297.19,116.19,1297.19,116.19Z"/><path class="cls-21" d="M1326.49,84.75c1.74-.85,11.72,13.06,21.44,20,.61,10,5,23.71,10,37.93l-1.88,6.06,7,2.14,7-30.2-17.2-48.83h-25.47S1324.75,85.6,1326.49,84.75Z"/><path class="cls-22" d="M1334.68,80.6A27.34,27.34,0,0,1,1321.52,94c-7.33,3.73-15.31,11.94-24.84,22.15l4,48.37-18.66-1.42c.64-8.92-3.37-13.25-2.71-19.76,2.7-26.36,5.58-50.94,9.69-62.78,0,0,8.73-23.38,18.68-27.06s25.35-7,45,.15c22.17,13,21.23,40.45,21.23,40.45,7.16,19.41.52,66.46-2.12,66.82-1.58.21-25-2-25-2s11.73-10.85,13.33-16.93c0,0-4.42-36.68-5.56-39.75-.66-1.79-4.25-7.22-10.83-11.35C1336.75,85.9,1333.74,80.3,1334.68,80.6Z"/><g class="cls-25"><rect class="cls-11" x="630.86" y="148.44" width="3.41" height="24.55"/><rect class="cls-11" x="491.77" y="146.4" width="3.41" height="23.86"/><rect class="cls-11" x="491.77" y="177.76" width="3.41" height="23.86"/><rect id="body" class="cls-11" x="495.18" y="96.63" width="136.36" height="262.5" rx="20.48" ry="20.48"/><circle id="buttom" class="cls-11" cx="563.36" cy="336.63" r="12.27"/><g id="mic"><rect class="cls-26" x="553.76" y="104.85" width="27.89" height="4.41" rx="2.21" ry="2.21"/><circle class="cls-26" cx="547.6" cy="107.02" r="2.54"/></g><rect id="screen-2" data-name="screen" class="cls-27" x="503.36" y="117.08" width="120" height="197.73"/><rect class="cls-11" x="630.86" y="148.44" width="3.41" height="24.55"/><rect class="cls-11" x="491.77" y="146.4" width="3.41" height="23.86"/><rect class="cls-11" x="491.77" y="177.76" width="3.41" height="23.86"/><rect id="body-2" data-name="body" class="cls-11" x="495.18" y="96.63" width="136.36" height="262.5" rx="20.48" ry="20.48"/><circle id="buttom-2" data-name="buttom" class="cls-11" cx="563.36" cy="336.63" r="12.27"/><g id="mic-2" data-name="mic"><rect class="cls-26" x="553.76" y="104.85" width="27.89" height="4.41" rx="2.21" ry="2.21"/><circle class="cls-26" cx="547.6" cy="107.02" r="2.54"/></g><rect id="screen-3" data-name="screen" class="cls-27" x="503.36" y="117.08" width="120" height="197.73"/><rect class="cls-28" x="606.78" y="122.68" width="9.73" height="3.15"/><rect class="cls-28" x="614.07" y="123.55" width="4.29" height="1.4"/></g><g class="cls-29"><polygon class="cls-30" points="1077.88 264.05 999.93 314.78 927.53 203.51 932.79 193.82 946.09 191.44 951.58 181.6 964.42 179.51 971.3 168.76 983.44 167.13 991.48 155.63 1005.48 152.79 1077.88 264.05"/><text class="cls-31" transform="translate(978.65 208.12) rotate(-33.05)">$10.20<tspan x="0" y="14.4">$07.12</tspan><tspan x="0" y="43.2">$50.79</tspan><tspan x="0" y="57.6">$27.29</tspan></text><rect class="cls-11" x="1010.25" y="150.04" width="3.41" height="24.55"/><rect class="cls-11" x="871.15" y="147.99" width="3.41" height="23.86"/><rect class="cls-11" x="871.15" y="179.35" width="3.41" height="23.86"/><rect id="body-3" data-name="body" class="cls-11" x="874.56" y="98.22" width="136.36" height="262.5" rx="20.48" ry="20.48"/><circle id="buttom-3" data-name="buttom" class="cls-11" cx="942.75" cy="338.22" r="12.27"/><g id="mic-3" data-name="mic"><rect class="cls-26" x="933.15" y="106.44" width="27.89" height="4.41" rx="2.21" ry="2.21"/><circle class="cls-26" cx="926.99" cy="108.61" r="2.54"/></g><rect id="screen-4" data-name="screen" class="cls-27" x="882.75" y="118.67" width="120" height="197.73"/><rect class="cls-11" x="1010.25" y="150.04" width="3.41" height="24.55"/><rect class="cls-11" x="871.15" y="147.99" width="3.41" height="23.86"/><rect class="cls-11" x="871.15" y="179.35" width="3.41" height="23.86"/><rect id="body-4" data-name="body" class="cls-11" x="874.56" y="98.22" width="136.36" height="262.5" rx="20.48" ry="20.48"/><circle id="buttom-4" data-name="buttom" class="cls-11" cx="942.75" cy="338.22" r="12.27"/><g id="mic-4" data-name="mic"><rect class="cls-26" x="933.15" y="106.44" width="27.89" height="4.41" rx="2.21" ry="2.21"/><circle class="cls-26" cx="926.99" cy="108.61" r="2.54"/></g><rect id="screen-5" data-name="screen" class="cls-27" x="882.75" y="118.67" width="120" height="197.73"/><g class="cls-32"><polygon class="cls-30" points="1077.88 264.05 999.93 314.78 927.53 203.51 932.79 193.82 946.09 191.44 951.58 181.6 964.42 179.51 971.3 168.76 983.44 167.13 991.48 155.63 1005.48 152.79 1077.88 264.05"/><text class="cls-31" transform="translate(978.65 208.12) rotate(-33.05)">$10.20<tspan x="0" y="14.4">$07.12</tspan><tspan x="0" y="43.2">$50.79</tspan><tspan x="0" y="57.6">$27.29</tspan></text></g><rect class="cls-28" x="986.16" y="124.27" width="9.73" height="3.15"/><rect class="cls-28" x="993.46" y="125.14" width="4.29" height="1.4"/></g><text class="cls-33" transform="translate(15 397.48)"><tspan class="cls-34">P</tspan><tspan class="cls-35" x="15.18" y="0">a</tspan><tspan x="29.4" y="0">y with </tspan><tspan class="cls-36" x="111.93" y="0">y</tspan><tspan x="125.76" y="0">our Spend! ca</tspan><tspan class="cls-37" x="296.55" y="0">rd</tspan><tspan x="322.68" y="0">.</tspan></text><text class="cls-33" transform="translate(410.63 397.48)"><tspan class="cls-38">S</tspan><tspan x="14.97" y="0">ee t</tspan><tspan class="cls-39" x="61.32" y="0">r</tspan><tspan x="70.98" y="0">ansa</tspan><tspan class="cls-40" x="128.43" y="0">c</tspan><tspan x="142.26" y="0">tions in </tspan><tspan class="cls-41" x="240.6" y="0">r</tspan><tspan x="250.11" y="0">eal-tim</tspan><tspan class="cls-42" x="337.85" y="0">e</tspan><tspan x="352.52" y="0">.</tspan></text><text class="cls-33" transform="translate(868.46 397.48)">Snap a <tspan class="cls-36" x="90.15" y="0">r</tspan><tspan class="cls-43" x="99.66" y="0">ecip</tspan><tspan class="cls-44" x="152.22" y="0">t</tspan><tspan class="cls-45" x="162.06" y="0">.</tspan></text><text class="cls-46" transform="translate(1186.44 397.48)">W<tspan class="cls-43" x="24.39" y="0">e will take of the </tspan><tspan class="cls-36" x="234.81" y="0">r</tspan><tspan class="cls-43" x="244.32" y="0">est!</tspan></text></svg>