<svg id="Layer_1" data-name="Layer 1" xmlns="http://www.w3.org/2000/svg" viewBox="0 0 378 707"><defs><style>.cls-1{fill:#ccc;}.cls-11,.cls-2,.cls-5,.cls-6,.cls-7,.cls-9{fill:#fff;}.cls-2{stroke:gray;}.cls-13,.cls-16,.cls-2,.cls-3,.cls-4,.cls-6{stroke-miterlimit:10;}.cls-10,.cls-3{fill:gray;}.cls-3,.cls-4,.cls-6{stroke:#fff;}.cls-4{fill:#003;}.cls-7{font-size:16.4px;font-family:Arial-BoldMT, Arial;font-weight:700;}.cls-8{letter-spacing:-0.04em;}.cls-9{font-size:72.85px;}.cls-11,.cls-9{font-family:ArialMT, Arial;}.cls-11{font-size:21.3px;}.cls-12{fill:#282f45;}.cls-13,.cls-16{fill:none;}.cls-13{stroke:#ff0;}.cls-14{font-size:19.45px;fill:#ff0;font-family:AmericanTypewriter, American Typewriter;}.cls-15,.cls-17,.cls-18{fill:#a8a800;}.cls-16{stroke:#474700;}.cls-17{font-size:11.12px;}.cls-17,.cls-18{font-family:Silom, Silom;}.cls-18{font-size:7.96px;}</style></defs><title>spend-app</title><rect class="cls-1" x="363.89" y="168.42" width="8.88" height="63.91"/><rect class="cls-1" x="7.5" y="163.1" width="8.88" height="62.14"/><rect class="cls-1" x="7.5" y="244.76" width="8.88" height="62.14"/><rect id="body" class="cls-2" x="12.6" y="6.19" width="355.06" height="693.88" rx="41.91" ry="41.91"/><circle id="buttom" class="cls-2" cx="190.13" cy="647.41" r="31.96"/><rect class="cls-3" x="169.59" y="44.92" width="59.69" height="9.44" rx="3.23" ry="3.23"/><circle class="cls-3" cx="156.41" cy="49.57" r="5.43"/><rect id="screen" class="cls-4" x="33.91" y="86.76" width="312.46" height="514.84"/><rect class="cls-5" x="301.98" y="97.41" width="27.32" height="11.54"/><rect class="cls-6" x="326.83" y="101.85" width="7.1" height="2.66"/><text class="cls-7" transform="translate(167.94 108.4)">1:23<tspan class="cls-8" x="32.83" y="0"> </tspan><tspan x="36.78" y="0">AM</tspan></text><text class="cls-9" transform="translate(78.05 206.14)">Spend!</text><rect class="cls-10" x="196.56" y="536.65" width="97.64" height="41.38" rx="11.65" ry="11.65"/><text class="cls-11" transform="translate(221.27 564.6)">JOIN</text><rect class="cls-10" x="86.28" y="536.8" width="97.64" height="41.38" rx="11.65" ry="11.65"/><text class="cls-11" transform="translate(100.47 564.6)">LOGIN</text><rect id="card" class="cls-12" x="78.64" y="324.06" width="223.6" height="130.43" rx="6.31" ry="6.31" transform="translate(144 -41.59) rotate(19.92)"/><circle class="cls-13" cx="128.68" cy="324.83" r="17.99" transform="translate(-220.56 335.16) rotate(-70.08)"/><circle class="cls-13" cx="128.68" cy="324.83" r="13.23" transform="translate(-220.56 335.16) rotate(-70.08)"/><text class="cls-14" transform="translate(120.82 328.88) rotate(19.92)">S</text><rect class="cls-15" x="96.78" y="349.1" width="30.17" height="27.2" rx="7.66" ry="7.66" transform="translate(130.25 -16.41) rotate(19.92)"/><rect class="cls-16" x="106.48" y="353.89" width="10.77" height="17.63" transform="translate(130.25 -16.41) rotate(19.92)"/><rect class="cls-16" x="106.48" y="350.84" width="10.77" height="23.73" transform="translate(-267.25 344.32) rotate(-70.08)"/><text class="cls-17" transform="translate(91.36 384.83) rotate(19.92)"><tspan xml:space="preserve">4520    1900    3731    0053</tspan></text><text class="cls-18" transform="translate(97.19 405.75) rotate(19.92)">02/12</text><text class="cls-18" transform="translate(142.25 422.08) rotate(19.92)">02/20</text></svg>