<svg id="Layer_1" data-name="Layer 1" xmlns="http://www.w3.org/2000/svg" viewBox="0 0 575 405"><defs><style>.cls-1{fill:#4d4d4d;}.cls-2{fill:#369;}.cls-2,.cls-3{stroke:#000;}.cls-12,.cls-13,.cls-2,.cls-3,.cls-4,.cls-6,.cls-9{stroke-miterlimit:10;}.cls-3{fill:#1f3d5c;}.cls-4,.cls-6,.cls-9{fill:none;}.cls-4{stroke:#132538;stroke-linecap:round;stroke-width:12px;}.cls-5{fill:#282f45;}.cls-6{stroke:#ff0;}.cls-7{font-size:24.54px;fill:#ff0;font-family:AmericanTypewriter, American Typewriter;}.cls-10,.cls-11,.cls-8{fill:#a8a800;}.cls-9{stroke:#474700;}.cls-10{font-size:14.03px;}.cls-10,.cls-11{font-family:Silom, Silom;}.cls-11{font-size:10.04px;}.cls-12{font-size:46.38px;fill:#fff;stroke:#fff;font-family:ArialMT, Arial;}.cls-13{stroke:#999;stroke-width:2px;}.cls-14{fill:red;}</style></defs><title>spend-robot-card</title><ellipse class="cls-1" cx="209.32" cy="384.09" rx="101.5" ry="12.26"/><circle class="cls-2" cx="209.32" cy="287.5" r="101.5"/><circle class="cls-3" cx="209.32" cy="287.5" r="77.5"/><circle class="cls-2" cx="209.82" cy="322" r="43"/><polyline class="cls-4" points="209.82 322 353.82 297 403.82 195"/><rect id="card" class="cls-5" x="275.43" y="28.23" width="282.08" height="164.55" rx="6.31" ry="6.31" transform="matrix(0.99, -0.15, 0.15, 0.99, -11.64, 61.72)"/><circle class="cls-6" cx="309.33" cy="75.81" r="22.7" transform="translate(-7.73 45.78) rotate(-8.36)"/><circle class="cls-6" cx="309.33" cy="75.81" r="16.7" transform="translate(-7.73 45.78) rotate(-8.36)"/><text class="cls-7" transform="translate(303.03 85.07) rotate(-8.36)">S</text><rect class="cls-8" x="294.25" y="110.77" width="38.06" height="34.32" rx="9.95" ry="9.95" transform="translate(-15.27 46.91) rotate(-8.36)"/><rect class="cls-9" x="306.49" y="116.82" width="13.58" height="22.24" transform="matrix(0.99, -0.15, 0.15, 0.99, -15.27, 46.91)"/><rect class="cls-9" x="306.49" y="112.96" width="13.58" height="29.94" transform="translate(232.26 456.49) rotate(-98.36)"/><text class="cls-10" transform="translate(303.73 164.84) rotate(-8.36)"><tspan xml:space="preserve">4520    1900    3731    0053</tspan></text><text class="cls-11" transform="translate(322.72 184.59) rotate(-8.36)">02/12</text><text class="cls-11" transform="translate(382.53 175.81) rotate(-8.36)">02/20</text><path class="cls-4" d="M406.82,200.14q36.62,17.53,32.17-26.4"/><text class="cls-12" transform="translate(392.31 85.04) rotate(-7.63)">Spend!</text><path class="cls-2" d="M180.22,120.66h0a60.26,60.26,0,0,1,60.26,60.26v2.58A8.51,8.51,0,0,1,232,192H128.47a8.51,8.51,0,0,1-8.51-8.51v-2.58a60.26,60.26,0,0,1,60.26-60.26Z" transform="translate(-26.71 37.59) rotate(-11.09)"/><circle class="cls-13" cx="166.82" cy="164.77" r="12.17"/><circle class="cls-13" cx="197.55" cy="164.77" r="8.79"/><circle class="cls-14" cx="163.29" cy="168.3" r="3.52"/><circle class="cls-2" cx="353.99" cy="296.55" r="11.99" transform="translate(-102.29 367.63) rotate(-48.81)"/></svg>