<svg xmlns="http://www.w3.org/2000/svg" viewBox="0 0 423 333"><defs><style>.cls-1{stroke:#b3b3b3;}.cls-1,.cls-10,.cls-11,.cls-12,.cls-13,.cls-14,.cls-17,.cls-24,.cls-27,.cls-31,.cls-32,.cls-33,.cls-34,.cls-48,.cls-49,.cls-5,.cls-50,.cls-57,.cls-58,.cls-6,.cls-7,.cls-8,.cls-9{stroke-miterlimit:10;}.cls-1,.cls-57,.cls-58,.cls-9{stroke-width:2px;}.cls-2{fill:#b3b3b3;}.cls-3,.cls-56{fill:#f2f2f2;}.cls-4{fill:#666;}.cls-19,.cls-5{fill:#eaeaea;}.cls-10,.cls-11,.cls-12,.cls-13,.cls-14,.cls-17,.cls-5,.cls-50,.cls-6,.cls-7,.cls-8,.cls-9{stroke:#000;}.cls-24,.cls-27,.cls-48,.cls-49,.cls-57,.cls-6,.cls-7,.cls-9{fill:none;}.cls-6{stroke-width:4px;}.cls-8{fill:#567a8f;}.cls-10{fill:#3d46a2;}.cls-11,.cls-22,.cls-31,.cls-34,.cls-36,.cls-37,.cls-39,.cls-40,.cls-54,.cls-55{fill:#fff;}.cls-12{fill:#fcbc4b;}.cls-13{fill:#ff2600;}.cls-14{fill:#bfbfbf;}.cls-15{font-size:6.76px;font-family:MyriadPro-Regular, Myriad Pro;}.cls-16{fill:#f18e8f;}.cls-18{fill:#a28a6d;}.cls-20{fill:#315942;}.cls-21{fill:#99e1ff;}.cls-23{fill:#282f45;}.cls-24{stroke:#ff0;}.cls-25{font-size:18.71px;fill:#ff0;font-family:AmericanTypewriter, American Typewriter;}.cls-26,.cls-28,.cls-29{fill:#a8a800;}.cls-27{stroke:#474700;}.cls-28{font-size:10.69px;}.cls-28,.cls-29{font-family:Silom, Silom;}.cls-29{font-size:7.66px;}.cls-30{fill:#ccc;}.cls-31{stroke:gray;}.cls-32{fill:gray;}.cls-32,.cls-33,.cls-34{stroke:#fff;}.cls-33{fill:#003;}.cls-35,.cls-36,.cls-37,.cls-39,.cls-40,.cls-46,.cls-47,.cls-51,.cls-52,.cls-53,.cls-54,.cls-55,.cls-56,.cls-59{isolation:isolate;}.cls-36,.cls-37{font-size:7.62px;}.cls-36,.cls-37,.cls-52,.cls-53,.cls-54,.cls-55,.cls-56{font-family:Arial-BoldMT, Arial;font-weight:700;}.cls-37{letter-spacing:-0.04em;}.cls-38{fill:#3e3d4d;}.cls-39,.cls-54,.cls-55,.cls-56{font-size:9.89px;}.cls-39,.cls-40,.cls-46,.cls-47,.cls-51,.cls-59{font-family:ArialMT, Arial;}.cls-40,.cls-46,.cls-47,.cls-52,.cls-53,.cls-59{font-size:6.6px;}.cls-41{fill:blue;}.cls-42{fill:lime;}.cls-43{fill:#ed1c24;}.cls-44{fill:#754c24;}.cls-45{fill:#00a99d;}.cls-46,.cls-47{fill:#0071bc;}.cls-46{letter-spacing:-0.13em;}.cls-48{stroke:#fcee21;}.cls-48,.cls-49{stroke-width:3px;}.cls-49{stroke:#ed1c24;}.cls-50{fill:#fbb03b;}.cls-51{font-size:13.09px;}.cls-52{letter-spacing:-0.04em;}.cls-53{letter-spacing:-0.04em;}.cls-55{letter-spacing:-0.08em;}.cls-57{stroke:#ccc;}.cls-58,.cls-59{fill:#e6e6e6;}.cls-58{stroke:#e6e6e6;}</style></defs><title>splash</title><g id="Layer_3" data-name="Layer 3"><rect class="cls-1" x="6.5" y="47.5" width="327" height="226" rx="20.9" ry="20.9"/><path class="cls-2" d="M6.5,279.5h327a0,0,0,0,1,0,0v3a13,13,0,0,1-13,13h-301a13,13,0,0,1-13-13v-3A0,0,0,0,1,6.5,279.5Z"/><rect class="cls-3" x="23" y="63" width="293" height="193"/><path d="M29.27,74.73a3.7,3.7,0,0,0,1.87.53c1.07,0,1.69-.56,1.69-1.38s-.43-1.19-1.52-1.61C30,71.8,29.18,71.12,29.18,70a2.33,2.33,0,0,1,2.61-2.19,3.68,3.68,0,0,1,1.79.4l-.29.85a3.22,3.22,0,0,0-1.54-.38c-1.1,0-1.52.66-1.52,1.21,0,.76.49,1.13,1.61,1.56,1.37.53,2.06,1.19,2.06,2.37s-.92,2.33-2.83,2.33A4.17,4.17,0,0,1,29,75.6Z"/><path d="M35.3,72.09c0-.74,0-1.34,0-1.9h.95l0,1h0a2.28,2.28,0,0,1,2.06-1.13c1.4,0,2.46,1.19,2.46,3,0,2.09-1.27,3.12-2.64,3.12a2,2,0,0,1-1.79-.91h0v3.15h-1Zm1,1.55a2.38,2.38,0,0,0,0,.43A1.63,1.63,0,0,0,38,75.3c1.12,0,1.76-.91,1.76-2.24,0-1.16-.61-2.16-1.73-2.16a1.68,1.68,0,0,0-1.6,1.31,1.73,1.73,0,0,0-.07.43Z"/><path d="M42.71,73.29a1.86,1.86,0,0,0,2,2,3.81,3.81,0,0,0,1.61-.3l.18.76a4.7,4.7,0,0,1-1.93.36,2.7,2.7,0,0,1-2.85-2.93c0-1.75,1-3.13,2.72-3.13a2.46,2.46,0,0,1,2.4,2.73,4,4,0,0,1,0,.49Zm3.09-.76a1.5,1.5,0,0,0-1.46-1.71,1.75,1.75,0,0,0-1.62,1.71Z"/><path d="M48.14,71.77c0-.6,0-1.09,0-1.57H49l.06,1h0A2.13,2.13,0,0,1,51,70.06c.8,0,2.05.48,2.05,2.47V76H52V72.65c0-.94-.35-1.71-1.34-1.71A1.5,1.5,0,0,0,49.27,72a1.52,1.52,0,0,0-.07.49V76H48.14Z"/><path d="M59.81,67.48v7c0,.52,0,1.1,0,1.5h-.95l0-1h0a2.15,2.15,0,0,1-2,1.14c-1.4,0-2.48-1.19-2.48-3,0-1.93,1.19-3.12,2.6-3.12a1.94,1.94,0,0,1,1.75.89h0V67.48Zm-1.06,5.07a1.85,1.85,0,0,0,0-.44,1.55,1.55,0,0,0-1.52-1.22c-1.09,0-1.74,1-1.74,2.24s.58,2.15,1.72,2.15A1.59,1.59,0,0,0,58.71,74a1.82,1.82,0,0,0,0-.46Z"/><path d="M61.36,75.39a.7.7,0,0,1,.71-.74.74.74,0,0,1,0,1.49A.7.7,0,0,1,61.36,75.39Zm.3-1.71-.17-5.76h1.15l-.17,5.76Z"/><path class="cls-4" d="M76.83,70.6v2.25h2.61V70.6h.7V76h-.7V73.46H76.83V76h-.7V70.6Z"/><path class="cls-4" d="M84.82,74a1.89,1.89,0,0,1-1.93,2.05,1.84,1.84,0,0,1-1.85-2A1.89,1.89,0,0,1,83,72,1.83,1.83,0,0,1,84.82,74Zm-3.07,0c0,.85.49,1.49,1.18,1.49s1.18-.63,1.18-1.5c0-.66-.33-1.49-1.16-1.49S81.75,73.32,81.75,74.06Z"/><path class="cls-4" d="M85.94,72.12l.51,2c.11.43.22.83.29,1.23h0c.09-.39.22-.81.34-1.22l.63-2h.59l.6,1.94c.14.46.26.87.34,1.26h0a11.63,11.63,0,0,1,.3-1.25l.55-1.94h.7L89.59,76H89l-.59-1.85A12.88,12.88,0,0,1,88,72.87h0a11.45,11.45,0,0,1-.35,1.28L87,76h-.64l-1.17-3.87Z"/><path class="cls-4" d="M96.64,76l-.5-.53a2.21,2.21,0,0,1-1.58.62,1.52,1.52,0,0,1-1.65-1.51A1.77,1.77,0,0,1,94,73v0a1.85,1.85,0,0,1-.45-1.13,1.31,1.31,0,0,1,1.37-1.33,1.12,1.12,0,0,1,1.19,1.14c0,.57-.33,1-1.18,1.44v0c.46.53,1,1.12,1.31,1.5A3.94,3.94,0,0,0,96.72,73h.64a4.09,4.09,0,0,1-.78,2l.89,1Zm-.85-.93c-.32-.35-.92-1-1.52-1.69a1.32,1.32,0,0,0-.7,1.1,1.06,1.06,0,0,0,1.1,1.09A1.5,1.5,0,0,0,95.79,75.06Zm-1.64-3.29a1.51,1.51,0,0,0,.41,1c.54-.31.9-.6.9-1.06a.63.63,0,0,0-.62-.7A.7.7,0,0,0,94.15,71.77Z"/><path class="cls-4" d="M100.39,76,99,70.6h.74l.64,2.73c.16.67.3,1.34.4,1.86h0c.09-.54.26-1.18.44-1.87L102,70.6h.73l.66,2.73c.15.64.3,1.28.38,1.85h0c.11-.59.26-1.19.43-1.86l.71-2.72h.71L104.08,76h-.73l-.68-2.81a16.29,16.29,0,0,1-.35-1.76h0a16.8,16.8,0,0,1-.42,1.76L101.12,76Z"/><path class="cls-4" d="M106.22,70.31h.7v2.41h0a1.3,1.3,0,0,1,.5-.5,1.45,1.45,0,0,1,.72-.2c.52,0,1.35.32,1.35,1.66V76h-.7V73.76c0-.62-.23-1.15-.9-1.15a1,1,0,0,0-.94.7.85.85,0,0,0,0,.34V76h-.7Z"/><path class="cls-4" d="M110.81,72.12l.85,2.29c.09.26.18.56.25.79h0c.07-.23.15-.53.25-.81l.77-2.27h.74l-1.06,2.76a5.89,5.89,0,0,1-1.33,2.42,1.91,1.91,0,0,1-.86.46l-.18-.59a1.86,1.86,0,0,0,.62-.34,2.13,2.13,0,0,0,.59-.78.5.5,0,0,0,.06-.17.62.62,0,0,0,0-.18L110,72.12Z"/><path class="cls-4" d="M119.43,70.66a8.09,8.09,0,0,1,1.33-.1,2.22,2.22,0,0,1,1.51.45,1.45,1.45,0,0,1,.47,1.13,1.59,1.59,0,0,1-.42,1.15,2.23,2.23,0,0,1-1.65.59,2.39,2.39,0,0,1-.56,0V76h-.7Zm.7,2.6a2.33,2.33,0,0,0,.58.06c.84,0,1.35-.41,1.35-1.15s-.5-1.06-1.27-1.06a2.9,2.9,0,0,0-.66.06Z"/><path class="cls-4" d="M123.54,73.32c0-.46,0-.85,0-1.21h.62l0,.76h0a1.16,1.16,0,0,1,1.07-.85l.2,0v.66l-.24,0a1,1,0,0,0-.94.9,2,2,0,0,0,0,.33V76h-.7Z"/><path class="cls-4" d="M127,71a.44.44,0,0,1-.87,0,.43.43,0,0,1,.44-.44A.42.42,0,0,1,127,71Zm-.78,5V72.12h.7V76Z"/><path class="cls-4" d="M130.82,75.84a2.59,2.59,0,0,1-1.11.22,1.84,1.84,0,0,1-1.93-2A2,2,0,0,1,129.86,72a2.35,2.35,0,0,1,1,.2l-.16.54a1.63,1.63,0,0,0-.82-.18,1.46,1.46,0,0,0,0,2.91,2,2,0,0,0,.86-.19Z"/><path class="cls-4" d="M132.42,71a.44.44,0,0,1-.87,0,.43.43,0,0,1,.44-.44A.42.42,0,0,1,132.42,71Zm-.78,5V72.12h.7V76Z"/><path class="cls-4" d="M133.51,73.16c0-.4,0-.73,0-1h.62l0,.64h0a1.42,1.42,0,0,1,1.28-.73c.54,0,1.37.32,1.37,1.65V76h-.7V73.75c0-.62-.23-1.14-.9-1.14a1,1,0,0,0-1,1V76h-.7Z"/><path class="cls-4" d="M141.29,72.12c0,.28,0,.59,0,1.06v2.25a2.23,2.23,0,0,1-.55,1.77,2.05,2.05,0,0,1-1.41.46,2.5,2.5,0,0,1-1.29-.32l.18-.54a2.18,2.18,0,0,0,1.14.3c.72,0,1.25-.38,1.25-1.35v-.43h0a1.38,1.38,0,0,1-1.23.65,1.73,1.73,0,0,1-1.65-1.89A1.86,1.86,0,0,1,139.42,72a1.29,1.29,0,0,1,1.21.67h0l0-.58Zm-.73,1.53a1,1,0,0,0-1-1.06c-.67,0-1.15.57-1.15,1.46s.38,1.39,1.14,1.39a1,1,0,0,0,1-.72,1.22,1.22,0,0,0,.06-.38Z"/><path class="cls-4" d="M146.54,70.6v2.25h2.61V70.6h.7V76h-.7V73.46h-2.61V76h-.7V70.6Z"/><path class="cls-4" d="M151.42,74.18a1.24,1.24,0,0,0,1.33,1.34,2.54,2.54,0,0,0,1.07-.2l.12.5a3.13,3.13,0,0,1-1.29.24,1.8,1.8,0,0,1-1.9-2A1.88,1.88,0,0,1,152.57,72a1.64,1.64,0,0,1,1.6,1.82,2.59,2.59,0,0,1,0,.33Zm2.06-.5a1,1,0,0,0-1-1.14,1.17,1.17,0,0,0-1.08,1.14Z"/><path class="cls-4" d="M155,70.31h.7V76H155Z"/><path class="cls-4" d="M156.93,73.38c0-.5,0-.9,0-1.26h.63l0,.66h0A1.52,1.52,0,0,1,159,72a1.75,1.75,0,0,1,1.64,2,1.83,1.83,0,0,1-1.76,2.08,1.36,1.36,0,0,1-1.19-.61h0v2.1h-.7Zm.7,1a1.62,1.62,0,0,0,0,.29,1.09,1.09,0,0,0,1.06.82c.74,0,1.18-.61,1.18-1.5s-.41-1.44-1.15-1.44a1.12,1.12,0,0,0-1.06.87,1.14,1.14,0,0,0,0,.29Z"/><path class="cls-4" d="M168.66,75.81a3.45,3.45,0,0,1-1.42.26,2.52,2.52,0,0,1-2.66-2.73,2.68,2.68,0,0,1,2.81-2.83,2.89,2.89,0,0,1,1.28.24l-.17.57a2.53,2.53,0,0,0-1.09-.22,2,2,0,0,0-2.1,2.22,2,2,0,0,0,2.07,2.17,2.79,2.79,0,0,0,1.14-.22Z"/><path class="cls-4" d="M172.93,74A1.89,1.89,0,0,1,171,76.07a1.84,1.84,0,0,1-1.85-2A1.89,1.89,0,0,1,171.06,72,1.83,1.83,0,0,1,172.93,74Zm-3.07,0c0,.85.49,1.49,1.18,1.49s1.18-.63,1.18-1.5c0-.66-.33-1.49-1.16-1.49S169.85,73.32,169.85,74.06Z"/><path class="cls-4" d="M173.81,73.16c0-.4,0-.73,0-1h.62l0,.64h0a1.42,1.42,0,0,1,1.28-.73c.54,0,1.37.32,1.37,1.65V76h-.7V73.75c0-.62-.23-1.14-.9-1.14a1,1,0,0,0-1,1V76h-.7Z"/><path class="cls-4" d="M179.07,71v1.11h1v.54h-1v2.09c0,.48.14.75.53.75a1.54,1.54,0,0,0,.41,0l0,.53a1.72,1.72,0,0,1-.62.1,1,1,0,0,1-.76-.3,1.43,1.43,0,0,1-.27-1V72.65h-.6v-.54h.6v-.93Z"/><path class="cls-4" d="M183,76,183,75.5h0a1.44,1.44,0,0,1-1.18.58A1.1,1.1,0,0,1,180.57,75c0-.94.83-1.45,2.33-1.44v-.08a.8.8,0,0,0-.88-.9,1.93,1.93,0,0,0-1,.29l-.16-.46a2.41,2.41,0,0,1,1.27-.34c1.18,0,1.47.81,1.47,1.58v1.45a5.46,5.46,0,0,0,.06.93Zm-.1-2c-.77,0-1.64.12-1.64.87a.62.62,0,0,0,.66.67,1,1,0,0,0,.94-.65.73.73,0,0,0,0-.22Z"/><path class="cls-4" d="M187.49,75.84a2.59,2.59,0,0,1-1.11.22,1.84,1.84,0,0,1-1.93-2A2,2,0,0,1,186.53,72a2.35,2.35,0,0,1,1,.2l-.16.54a1.63,1.63,0,0,0-.82-.18,1.46,1.46,0,0,0,0,2.91,2,2,0,0,0,.86-.19Z"/><path class="cls-4" d="M189.26,71v1.11h1v.54h-1v2.09c0,.48.14.75.53.75a1.54,1.54,0,0,0,.41,0l0,.53a1.72,1.72,0,0,1-.62.1,1,1,0,0,1-.76-.3,1.43,1.43,0,0,1-.27-1V72.65H188v-.54h.6v-.93Z"/><path d="M39.12,101.06a4,4,0,0,0,2,.57c1.16,0,1.83-.61,1.83-1.5s-.47-1.29-1.65-1.74C39.9,97.88,39,97.14,39,95.91s1.13-2.38,2.83-2.38a4,4,0,0,1,1.94.43l-.31.92a3.48,3.48,0,0,0-1.66-.42c-1.2,0-1.65.71-1.65,1.31,0,.82.53,1.22,1.74,1.69,1.48.57,2.24,1.29,2.24,2.57s-1,2.52-3.07,2.52a4.53,4.53,0,0,1-2.24-.56Z"/><path d="M45.65,93.2h1.14v3.93h0a2.12,2.12,0,0,1,.82-.81A2.36,2.36,0,0,1,48.81,96c.84,0,2.2.52,2.2,2.69v3.74H49.86V98.82c0-1-.38-1.87-1.46-1.87a1.64,1.64,0,0,0-1.53,1.14,1.39,1.39,0,0,0-.08.55v3.8H45.65Z"/><path d="M58.56,99.24a3.08,3.08,0,0,1-3.13,3.34,3,3,0,0,1-3-3.24A3.07,3.07,0,0,1,55.53,96,3,3,0,0,1,58.56,99.24Zm-5,.06c0,1.38.79,2.42,1.91,2.42s1.91-1,1.91-2.44c0-1.07-.53-2.42-1.89-2.42S53.56,98.11,53.56,99.3Z"/><path d="M60,98.2c0-.81,0-1.46-.05-2.05h1L61,97.22h0A2.47,2.47,0,0,1,63.29,96C64.81,96,66,97.29,66,99.2c0,2.26-1.38,3.38-2.86,3.38a2.21,2.21,0,0,1-1.94-1h0V105H60Zm1.13,1.68a2.59,2.59,0,0,0,.05.47,1.77,1.77,0,0,0,1.72,1.34c1.21,0,1.91-1,1.91-2.43,0-1.26-.66-2.34-1.87-2.34a1.83,1.83,0,0,0-1.73,1.42,1.86,1.86,0,0,0-.08.47Z"/><path d="M67.4,98.2c0-.81,0-1.46-.05-2.05h1l.05,1.08h0A2.47,2.47,0,0,1,70.69,96c1.52,0,2.67,1.29,2.67,3.2,0,2.26-1.38,3.38-2.86,3.38a2.21,2.21,0,0,1-1.94-1h0V105H67.4Zm1.13,1.68a2.54,2.54,0,0,0,.05.47,1.76,1.76,0,0,0,1.72,1.34c1.21,0,1.91-1,1.91-2.43,0-1.26-.66-2.34-1.87-2.34a1.83,1.83,0,0,0-1.73,1.42,1.86,1.86,0,0,0-.08.47Z"/><path d="M76.07,94.37a.71.71,0,0,1-1.42,0,.7.7,0,0,1,.71-.71A.68.68,0,0,1,76.07,94.37Zm-1.27,8.06V96.14h1.14v6.29Z"/><path d="M77.84,97.85c0-.65,0-1.18-.05-1.7h1l.06,1h0A2.31,2.31,0,0,1,81,96c.87,0,2.22.52,2.22,2.68v3.76H82V98.81c0-1-.38-1.86-1.46-1.86a1.63,1.63,0,0,0-1.53,1.17,1.65,1.65,0,0,0-.08.53v3.78H77.84Z"/><path d="M90.47,96.14c0,.45-.05,1-.05,1.73v3.65a3.62,3.62,0,0,1-.9,2.87,3.34,3.34,0,0,1-2.29.75,4.06,4.06,0,0,1-2.09-.52l.29-.87a3.55,3.55,0,0,0,1.85.49c1.17,0,2-.61,2-2.2v-.7h0a2.25,2.25,0,0,1-2,1.05,2.81,2.81,0,0,1-2.68-3.07C84.6,97.21,86,96,87.43,96a2.09,2.09,0,0,1,2,1.09h0l.05-.95Zm-1.18,2.48a1.62,1.62,0,0,0-.06-.52,1.65,1.65,0,0,0-1.6-1.21c-1.09,0-1.87.92-1.87,2.38,0,1.24.62,2.26,1.86,2.26a1.67,1.67,0,0,0,1.59-1.17,2,2,0,0,0,.09-.61Z"/><path d="M95.07,97.85c0-.65,0-1.18-.05-1.7h1l.05,1h0a2.17,2.17,0,0,1,2-1.16,1.86,1.86,0,0,1,1.78,1.26h0a2.6,2.6,0,0,1,.7-.82A2.15,2.15,0,0,1,102,96c.83,0,2.07.55,2.07,2.73v3.71h-1.12V98.87c0-1.21-.44-1.94-1.37-1.94a1.48,1.48,0,0,0-1.35,1,1.89,1.89,0,0,0-.09.57v3.89H99V98.66c0-1-.44-1.73-1.31-1.73a1.71,1.71,0,0,0-1.51,1.7v3.8H95.07Z"/><path d="M109.4,102.43l-.09-.79h0a2.34,2.34,0,0,1-1.92.94,1.79,1.79,0,0,1-1.92-1.81c0-1.52,1.35-2.35,3.78-2.34V98.3a1.3,1.3,0,0,0-1.43-1.46,3.13,3.13,0,0,0-1.64.47l-.26-.75a3.9,3.9,0,0,1,2.07-.56c1.92,0,2.39,1.31,2.39,2.57v2.35a8.85,8.85,0,0,0,.1,1.51Zm-.17-3.21c-1.25,0-2.67.19-2.67,1.42a1,1,0,0,0,1.08,1.09,1.57,1.57,0,0,0,1.52-1.05,1.19,1.19,0,0,0,.06-.36Z"/><path d="M117.62,93.2v7.61c0,.56,0,1.2.05,1.63h-1l-.05-1.09h0a2.33,2.33,0,0,1-2.15,1.23c-1.52,0-2.69-1.29-2.69-3.2,0-2.09,1.29-3.38,2.82-3.38a2.1,2.1,0,0,1,1.9,1h0V93.2Zm-1.14,5.5a2,2,0,0,0-.05-.48,1.68,1.68,0,0,0-1.65-1.33c-1.18,0-1.89,1-1.89,2.43s.62,2.33,1.86,2.33a1.72,1.72,0,0,0,1.68-1.36,2,2,0,0,0,.05-.49Z"/><path d="M120.15,99.5a2,2,0,0,0,2.16,2.18,4.14,4.14,0,0,0,1.74-.33l.19.82a5.1,5.1,0,0,1-2.09.39,2.92,2.92,0,0,1-3.09-3.17c0-1.9,1.12-3.39,3-3.39,2.05,0,2.6,1.81,2.6,3a4.38,4.38,0,0,1,0,.53Zm3.35-.82a1.63,1.63,0,0,0-1.59-1.86,1.9,1.9,0,0,0-1.75,1.86Z"/><path d="M128.9,102.43V97H128v-.87h.88v-.3a3,3,0,0,1,.73-2.2,2.19,2.19,0,0,1,1.53-.59,2.66,2.66,0,0,1,1,.18l-.16.88a1.71,1.71,0,0,0-.73-.14c-1,0-1.22.86-1.22,1.82v.34h1.52V97H130v5.42Z"/><path d="M137.84,100.72c0,.65,0,1.22.05,1.72h-1l-.06-1h0a2.37,2.37,0,0,1-2.08,1.17c-1,0-2.17-.55-2.17-2.76V96.14h1.14v3.48c0,1.2.36,2,1.4,2a1.65,1.65,0,0,0,1.51-1,1.67,1.67,0,0,0,.1-.58V96.14h1.14Z"/><path d="M139.74,97.85c0-.65,0-1.18-.05-1.7h1l.06,1h0A2.31,2.31,0,0,1,142.87,96c.87,0,2.22.52,2.22,2.68v3.76H144V98.81c0-1-.38-1.86-1.46-1.86A1.63,1.63,0,0,0,141,98.12a1.65,1.65,0,0,0-.08.53v3.78h-1.14Z"/><path d="M153.2,102.43l-.09-.79h0a2.34,2.34,0,0,1-1.92.94,1.79,1.79,0,0,1-1.92-1.81c0-1.52,1.35-2.35,3.78-2.34V98.3a1.3,1.3,0,0,0-1.43-1.46,3.14,3.14,0,0,0-1.64.47l-.26-.75a3.9,3.9,0,0,1,2.07-.56c1.92,0,2.39,1.31,2.39,2.57v2.35a8.85,8.85,0,0,0,.1,1.51ZM153,99.22c-1.25,0-2.67.19-2.67,1.42a1,1,0,0,0,1.08,1.09,1.57,1.57,0,0,0,1.52-1.05,1.19,1.19,0,0,0,.06-.36Z"/><path d="M156,97.85c0-.65,0-1.18-.05-1.7h1l.06,1h0A2.31,2.31,0,0,1,159.11,96c.87,0,2.22.52,2.22,2.68v3.76h-1.14V98.81c0-1-.38-1.86-1.46-1.86a1.63,1.63,0,0,0-1.53,1.17,1.65,1.65,0,0,0-.08.53v3.78H156Z"/><path d="M168.63,93.2v7.61c0,.56,0,1.2.05,1.63h-1l-.05-1.09h0a2.33,2.33,0,0,1-2.15,1.23c-1.52,0-2.69-1.29-2.69-3.2,0-2.09,1.29-3.38,2.82-3.38a2.1,2.1,0,0,1,1.9,1h0V93.2Zm-1.14,5.5a2,2,0,0,0-.05-.48,1.68,1.68,0,0,0-1.65-1.33c-1.18,0-1.89,1-1.89,2.43s.62,2.33,1.86,2.33a1.72,1.72,0,0,0,1.68-1.36,2,2,0,0,0,.05-.49Z"/><path d="M173.12,101.26a3,3,0,0,0,1.51.46c.83,0,1.22-.42,1.22-.94s-.32-.85-1.17-1.16c-1.13-.4-1.66-1-1.66-1.78A1.94,1.94,0,0,1,175.19,96a3.14,3.14,0,0,1,1.55.39l-.29.83a2.45,2.45,0,0,0-1.29-.36c-.68,0-1.05.39-1.05.86s.38.75,1.2,1.07c1.09.42,1.65,1,1.65,1.9,0,1.1-.86,1.88-2.35,1.88a3.59,3.59,0,0,1-1.77-.43Z"/><path d="M179.7,94.37a.71.71,0,0,1-1.42,0,.7.7,0,0,1,.71-.71A.68.68,0,0,1,179.7,94.37Zm-1.27,8.06V96.14h1.14v6.29Z"/><path d="M181.47,97.85c0-.65,0-1.18-.05-1.7h1l.05,1h0a2.17,2.17,0,0,1,2-1.16,1.86,1.86,0,0,1,1.78,1.26h0a2.59,2.59,0,0,1,.7-.82,2.15,2.15,0,0,1,1.39-.44c.83,0,2.07.55,2.07,2.73v3.71h-1.12V98.87c0-1.21-.44-1.94-1.37-1.94a1.48,1.48,0,0,0-1.35,1,1.89,1.89,0,0,0-.09.57v3.89h-1.12V98.66c0-1-.44-1.73-1.31-1.73a1.71,1.71,0,0,0-1.51,1.7v3.8h-1.12Z"/><path d="M192.31,98.2c0-.81,0-1.46-.05-2.05h1l.05,1.08h0A2.47,2.47,0,0,1,195.6,96c1.52,0,2.67,1.29,2.67,3.2,0,2.26-1.38,3.38-2.86,3.38a2.21,2.21,0,0,1-1.94-1h0V105h-1.13Zm1.13,1.68a2.59,2.59,0,0,0,.05.47,1.77,1.77,0,0,0,1.72,1.34c1.21,0,1.91-1,1.91-2.43,0-1.26-.66-2.34-1.87-2.34a1.83,1.83,0,0,0-1.73,1.42,1.86,1.86,0,0,0-.08.47Z"/><path d="M199.71,93.2h1.14v9.23h-1.14Z"/><path d="M203.41,99.5a2,2,0,0,0,2.16,2.18,4.14,4.14,0,0,0,1.74-.33l.19.82a5.1,5.1,0,0,1-2.09.39,2.92,2.92,0,0,1-3.09-3.17c0-1.9,1.12-3.39,3-3.39,2.05,0,2.6,1.81,2.6,3a4.38,4.38,0,0,1,0,.53Zm3.35-.82a1.63,1.63,0,0,0-1.59-1.86,1.9,1.9,0,0,0-1.75,1.86Z"/><path d="M208.86,101.76a.77.77,0,0,1,.78-.82.82.82,0,1,1-.78.82Z"/><rect class="cls-5" x="87.82" y="125.91" width="57.76" height="69.92" transform="translate(83.35 -35.05) rotate(26.3)"/><polyline class="cls-6" points="88.15 162.58 92.85 166.22 99.74 168.31 103.91 171.69 109.12 172.95 112.99 176.18 118.06 177.36 121.01 180.14 126.23 181.4 129.04 184.11 132.51 184.51"/><polyline class="cls-6" points="86.43 166.07 91.13 169.71 98.02 171.79 102.19 175.17 107.4 176.43 111.27 179.66 116.33 180.84 119.29 183.63 124.51 184.88 127.32 187.59 130.79 187.99"/><polyline class="cls-6" points="84.71 169.55 89.41 173.19 96.29 175.27 100.46 178.65 105.68 179.91 109.55 183.14 114.61 184.33 117.57 187.11 122.79 188.37 125.6 191.07 129.07 191.47"/><polyline class="cls-6" points="82.99 173.03 87.69 176.67 94.57 178.75 98.74 182.13 103.96 183.39 107.83 186.62 112.89 187.81 115.85 190.59 121.07 191.85 123.88 194.56 127.35 194.95"/><polyline class="cls-7" points="109.82 126.76 99.12 148.41 137.57 167.42"/><rect class="cls-8" x="105.19" y="130.36" width="3.72" height="20.77" transform="translate(73.44 -32.86) rotate(26.3)"/><rect class="cls-8" x="108.39" y="140.51" width="3.72" height="12.67" transform="translate(76.48 -33.65) rotate(26.3)"/><rect class="cls-8" x="111.7" y="150.19" width="3.72" height="5.07" transform="translate(79.42 -34.51) rotate(26.3)"/><rect class="cls-8" x="117.82" y="147.86" width="3.72" height="10.13" transform="translate(80.14 -37.2) rotate(26.3)"/><rect class="cls-8" x="125.18" y="140.24" width="3.72" height="20.77" transform="translate(79.89 -40.69) rotate(26.3)"/><rect class="cls-8" x="128.49" y="149.91" width="3.72" height="13.17" transform="translate(82.83 -41.55) rotate(26.3)"/><rect class="cls-5" x="78.97" y="120.27" width="57.76" height="69.92" transform="translate(66.16 -29.13) rotate(22.05)"/><polyline class="cls-9" points="79.51 159.06 84.47 162.34 91.49 163.91 95.9 166.97 101.19 167.84 105.29 170.77 110.43 171.58 113.58 174.13 118.88 175 121.88 177.49 125.38 177.63"/><polyline class="cls-9" points="77.6 165.26 82.55 168.54 89.57 170.11 93.98 173.17 99.28 174.04 103.37 176.97 108.51 177.78 111.67 180.33 116.96 181.2 119.96 183.69 123.46 183.83"/><polyline class="cls-9" points="74.14 170.86 79.09 174.14 86.11 175.71 90.52 178.77 95.82 179.64 99.91 182.57 105.05 183.38 108.21 185.93 113.5 186.8 116.5 189.29 120 189.43"/><polyline class="cls-7" points="98.46 121.72 89.39 144.11 129.15 160.21"/><rect class="cls-8" x="94.88" y="125.49" width="3.72" height="20.77" transform="translate(58.08 -26.38) rotate(22.05)"/><rect class="cls-8" x="98.52" y="135.39" width="3.72" height="12.67" transform="translate(60.54 -27.32) rotate(22.05)"/><rect class="cls-8" x="102.26" y="144.81" width="3.72" height="5.07" transform="translate(62.93 -28.31) rotate(22.05)"/><rect class="cls-8" x="108.38" y="142.02" width="3.72" height="10.13" transform="translate(63.28 -30.62) rotate(22.05)"/><rect class="cls-8" x="115.54" y="133.86" width="3.72" height="20.77" transform="translate(62.74 -33.52) rotate(22.05)"/><rect class="cls-8" x="119.28" y="143.27" width="3.72" height="13.17" transform="translate(65.12 -34.51) rotate(22.05)"/><rect class="cls-10" x="61.14" y="136.69" width="27.87" height="37.15"/><rect class="cls-11" x="62.99" y="147.33" width="4.9" height="4.9"/><rect class="cls-11" x="69.41" y="147.33" width="4.9" height="4.9"/><rect class="cls-12" x="75.83" y="147.33" width="4.9" height="4.9"/><rect class="cls-13" x="82.25" y="147.33" width="4.9" height="4.9"/><rect class="cls-11" x="62.99" y="153.92" width="4.9" height="4.9"/><rect class="cls-11" x="69.41" y="153.92" width="4.9" height="4.9"/><rect class="cls-11" x="75.83" y="153.92" width="4.9" height="4.9"/><rect class="cls-11" x="82.25" y="153.92" width="4.9" height="4.9"/><rect class="cls-11" x="62.99" y="160.5" width="4.9" height="4.9"/><rect class="cls-11" x="69.41" y="160.5" width="4.9" height="4.9"/><rect class="cls-11" x="75.83" y="160.5" width="4.9" height="4.9"/><rect class="cls-11" x="82.25" y="160.5" width="4.9" height="4.9"/><rect class="cls-11" x="62.99" y="167.09" width="4.9" height="4.9"/><rect class="cls-11" x="69.41" y="167.09" width="4.9" height="4.9"/><rect class="cls-11" x="75.83" y="167.09" width="4.9" height="4.9"/><rect class="cls-11" x="82.25" y="167.09" width="4.9" height="4.9"/><rect class="cls-14" x="62.99" y="139.05" width="24.15" height="6.59"/><text class="cls-15" transform="translate(82.33 144.37)">0</text><ellipse class="cls-16" cx="155.48" cy="166.25" rx="4.2" ry="3.04"/><rect class="cls-12" x="120.46" y="163.2" width="34.98" height="1.54"/><rect class="cls-17" x="120.46" y="164.75" width="34.98" height="1.54"/><rect class="cls-12" x="120.46" y="166.29" width="34.98" height="1.54"/><rect class="cls-17" x="120.46" y="167.83" width="34.98" height="1.54"/><polygon class="cls-12" points="120.46 163.2 120.46 169.37 110.45 166.29 120.46 163.2"/><polygon class="cls-17" points="114.07 165.17 114.07 167.4 110.45 166.29 114.07 165.17"/><path class="cls-18" d="M66.55,186.14l9.93,1.95.58-3.12c-.24.92,6.3-5.18,6.82-7.79.42-2.14.81-4.28,1-5.45.19-1.36-2-2.08-2.53-1.56a21,21,0,0,0-1.17,3.89l-1.56,2.53,4.28-15.77s-.19-2.73-3.12-1.17L77.65,170s-.78.39-.78-.39S79.6,157.9,79.6,157.9s-.58-2.34-3.12-1l-2.73,11.3s-.39.58-.58-.19l1.56-9.93a2.16,2.16,0,0,0-3.31-.78L69.47,169s-.39.39-.78-.19l.19-4.09.76-3.68c.41-1.12-2.56-1.58-2.9-.61l-1.17,4.67v8a31.69,31.69,0,0,0-.19,4.67c.19.78.58,4.09,1.75,4.67Z"/><path class="cls-19" d="M67,160.53s1.75-.54,2.34.43L69,162.52s-1.75.15-2.34-.43Z"/><path class="cls-19" d="M71.81,157.44a1.93,1.93,0,0,1,2.49.65L74,159.85s-1.91,0-2.5-.56Z"/><path class="cls-19" d="M76.9,157.26a1.66,1.66,0,0,1,2.3.6l-.5,1.73a5.2,5.2,0,0,1-2.31-.52Z"/><path class="cls-19" d="M81.12,160.07a1.71,1.71,0,0,1,2.33.61L83,162.41s-1.79.05-2.37-.53Z"/><path class="cls-19" d="M82.71,170.88a1.41,1.41,0,0,1,2.16.43l-.32,1.91c-.07.08-1.77,0-2.15-.84Z"/><rect class="cls-20" x="56.92" y="189.05" width="17.14" height="50.63" transform="translate(47.28 -9.04) rotate(12.33)"/><rect class="cls-21" x="65" y="186.49" width="12.46" height="3.18" transform="translate(41.8 -10.87) rotate(12.33)"/><path class="cls-18" d="M148.3,189.34l-9.71,1.9-.57-3c.23.9-6.16-5.06-6.66-7.62-.41-2.09-.79-4.18-1-5.33-.19-1.33,2-2,2.48-1.52a20.52,20.52,0,0,1,1.14,3.81l1.52,2.48-4.19-15.42s.19-2.67,3-1.14l3,10.09s.76.38.76-.38-2.67-11.42-2.67-11.42.57-2.28,3-1l2.67,11s.38.57.57-.19l-1.52-9.71a2.11,2.11,0,0,1,3.24-.76l1.9,11.42s.38.38.76-.19l-.19-4-.75-3.6c-.4-1.1,2.5-1.55,2.84-.59l1.14,4.57v7.81a31,31,0,0,1,.19,4.57c-.19.76-.57,4-1.71,4.57Z"/><path class="cls-19" d="M147.83,164.3s-1.71-.53-2.28.42l.38,1.52s1.71.15,2.28-.42Z"/><path class="cls-19" d="M143.16,161.28a1.89,1.89,0,0,0-2.43.63l.31,1.73s1.87,0,2.44-.55Z"/><path class="cls-19" d="M138.18,161.11a1.63,1.63,0,0,0-2.25.58l.49,1.69a5.08,5.08,0,0,0,2.26-.51Z"/><path class="cls-19" d="M134.05,163.85a1.67,1.67,0,0,0-2.28.59l.48,1.7s1.75.05,2.32-.52Z"/><path class="cls-19" d="M132.51,174.42a1.38,1.38,0,0,0-2.12.42l.32,1.87c.07.07,1.73,0,2.1-.82Z"/><rect class="cls-20" x="140.15" y="192.36" width="16.76" height="49.51" transform="translate(-38.17 31.8) rotate(-10.84)"/><rect class="cls-21" x="137.49" y="189.72" width="12.19" height="3.11" transform="translate(-33.4 30.41) rotate(-10.84)"/><rect class="cls-20" x="188" y="133" width="50" height="19" rx="8.09" ry="8.09"/><path class="cls-22" d="M202.46,138.43h1.13v5.86c0,2.33-1.14,3-2.65,3a3.67,3.67,0,0,1-1.21-.21l.17-.92a2.69,2.69,0,0,0,.95.17c1,0,1.61-.46,1.61-2.17Z"/><path class="cls-22" d="M213,142.72c0,3-1.83,4.62-4.07,4.62s-3.94-1.79-3.94-4.45,1.73-4.6,4.07-4.6S213,140.12,213,142.72Zm-6.8.14c0,1.87,1,3.55,2.79,3.55s2.81-1.65,2.81-3.64c0-1.74-.91-3.56-2.79-3.56S206.17,140.94,206.17,142.86Z"/><path class="cls-22" d="M215.57,138.43v8.76h-1.13v-8.76Z"/><path class="cls-22" d="M217.54,147.19v-8.76h1.24l2.81,4.43a24.81,24.81,0,0,1,1.57,2.85h0c-.1-1.17-.13-2.24-.13-3.6v-3.67h1.07v8.76H223l-2.78-4.45a27.86,27.86,0,0,1-1.64-2.92h0c.06,1.1.09,2.16.09,3.61v3.74Z"/></g><g id="Layer_2" data-name="Layer 2"><rect id="card" class="cls-23" x="106.46" y="184" width="215.09" height="125.47" rx="6.31" ry="6.31"/><circle class="cls-24" cx="137.02" cy="208.69" r="17.31"/><circle class="cls-24" cx="137.02" cy="208.69" r="12.73"/><text class="cls-25" transform="translate(131.24 214.92)">S</text><rect class="cls-26" x="119.71" y="235.37" width="29.03" height="26.17" rx="9.95" ry="9.95"/><rect class="cls-27" x="129.05" y="239.97" width="10.36" height="16.96"/><rect class="cls-27" x="129.05" y="237.03" width="10.36" height="22.83" transform="translate(-114.22 382.67) rotate(-90)"/><text class="cls-28" transform="translate(122.93 275.18)"><tspan xml:space="preserve">4520    1900    3731    0053</tspan></text><text class="cls-29" transform="translate(135.06 292.19)">02/12</text><text class="cls-29" transform="translate(181.16 292.19)">02/20</text></g><g id="Layer_1" data-name="Layer 1"><rect class="cls-30" x="411.88" y="70.72" width="4.12" height="29.68"/><rect class="cls-30" x="244.5" y="68.25" width="4.12" height="28.86"/><rect class="cls-30" x="244.5" y="106.18" width="4.12" height="28.86"/><rect id="body" class="cls-31" x="247.8" y="8.06" width="164.9" height="317.44" rx="26.92" ry="26.92"/><circle id="buttom" class="cls-31" cx="330.25" cy="298.29" r="14.84"/><rect class="cls-32" x="318.64" y="18" width="33.73" height="5.33" rx="2.66" ry="2.66"/><circle class="cls-32" cx="311.2" cy="20.63" r="3.07"/><rect id="screen" class="cls-33" x="257.69" y="32.8" width="145.12" height="239.11"/><rect class="cls-22" x="382.19" y="37.74" width="12.69" height="5.36"/><rect class="cls-34" x="393.74" y="39.8" width="3.3" height="1.24"/><g class="cls-35"><text class="cls-36" transform="translate(319.94 42.85)">1:23</text><text class="cls-37" transform="translate(335.19 42.85)"> </text><text class="cls-36" transform="translate(337.03 42.85)">AM</text></g><rect class="cls-38" x="331.49" y="48.05" width="70.91" height="29.68"/><rect class="cls-38" x="258.1" y="47.22" width="70.91" height="29.68"/><rect class="cls-38" x="258.1" y="91.75" width="144.29" height="29.68"/><rect class="cls-38" x="258.1" y="123.08" width="144.29" height="29.68"/><rect class="cls-38" x="258.1" y="154.41" width="144.29" height="29.68"/><rect class="cls-38" x="258.1" y="185.74" width="144.29" height="29.68"/><rect class="cls-38" x="258.1" y="236.04" width="144.29" height="35.87"/><text class="cls-39" transform="translate(366.04 109.23)">15.79</text><text class="cls-39" transform="translate(366.04 140.56)">35.00</text><text class="cls-39" transform="translate(366.04 171.89)">12.65</text><text class="cls-39" transform="translate(366.04 203.22)">69.83</text><text class="cls-39" transform="translate(278.43 65.53)">133.27</text><text class="cls-40" transform="translate(357.04 73.29)">Report</text><circle class="cls-41" cx="361.71" cy="58.77" r="4.67"/><circle class="cls-42" cx="366.04" cy="58.77" r="4.67"/><circle class="cls-43" cx="370.71" cy="58.77" r="4.67"/><rect class="cls-3" x="264.68" y="99" width="15.19" height="15.19" rx="3.35" ry="3.35"/><rect class="cls-30" x="264.68" y="130.33" width="15.19" height="15.19" rx="3.35" ry="3.35"/><rect class="cls-44" x="264.68" y="161.66" width="15.19" height="15.19" rx="3.35" ry="3.35"/><rect class="cls-45" x="264.68" y="192.99" width="15.19" height="15.19" rx="3.35" ry="3.35"/><g class="cls-35"><text class="cls-46" transform="translate(308.54 87.49)">T</text><text class="cls-47" transform="translate(311.84 87.49)">oday 08/08/20</text></g><g class="cls-35"><text class="cls-46" transform="translate(308.54 228.65)">T</text><text class="cls-47" transform="translate(311.84 228.65)">oday 07/08/20</text></g><line class="cls-48" x1="331.49" y1="76.62" x2="402.4" y2="76.62"/><line class="cls-49" x1="258.1" y1="76.62" x2="329.01" y2="76.62"/><polygon class="cls-50" points="269.19 142.34 269.72 138.81 267.11 136.37 270.64 135.78 272.15 132.54 273.8 135.71 277.35 136.15 274.84 138.7 275.53 142.21 272.33 140.61 269.19 142.34"/><text class="cls-51" transform="translate(268.76 173.71)">+</text><g class="cls-35"><text class="cls-52" transform="translate(267.78 203.22)">R</text><text class="cls-53" transform="translate(272.29 203.22)">Y</text></g><g class="cls-35"><text class="cls-54" transform="translate(290.26 140.3)"><tspan xml:space="preserve">Must  Have</tspan></text></g><text class="cls-54" transform="translate(290.26 171.64)">Browns</text><g class="cls-35"><text class="cls-55" transform="translate(290.28 202.97)">Y</text><text class="cls-54" transform="translate(296.33 202.97)">adav</text></g><text class="cls-56" transform="translate(290.26 108.97)">Morgans</text><rect class="cls-57" x="264.68" y="241.96" width="22.18" height="13.77" rx="4.71" ry="4.71"/><line class="cls-57" x1="264.68" y1="247.29" x2="287.4" y2="247.29"/><ellipse class="cls-58" cx="329.01" cy="246.59" rx="7.17" ry="4.63"/><polygon class="cls-58" points="326.24 249.3 321.85 253.17 330.7 249.97 326.24 249.3"/><text class="cls-59" transform="translate(319.94 266.35)">chat</text><text class="cls-59" transform="translate(264.68 266.35)">charges</text><rect class="cls-30" x="376.34" y="241.96" width="2.65" height="2.65"/><rect class="cls-30" x="376.34" y="256.39" width="2.65" height="2.65"/><rect class="cls-30" x="369.12" y="249.17" width="2.65" height="2.65"/><rect class="cls-30" x="383.55" y="249.17" width="2.65" height="2.65"/><rect class="cls-30" x="371.23" y="244.07" width="2.65" height="2.65" transform="translate(-64.4 335.31) rotate(-45)"/><rect class="cls-30" x="381.43" y="254.28" width="2.65" height="2.65" transform="translate(-68.63 345.51) rotate(-45)"/><rect class="cls-30" x="371.23" y="254.28" width="2.65" height="2.65" transform="translate(-71.62 338.3) rotate(-45)"/><rect class="cls-30" x="381.43" y="244.08" width="2.65" height="2.65" transform="translate(-61.42 342.53) rotate(-45)"/><circle class="cls-57" cx="377.66" cy="250.46" r="6.12"/><text class="cls-59" transform="translate(366.94 266.35)">settings</text></g></svg>